<?xml version="1.0" encoding="utf-8"?>
<!-- Generator: Adobe Illustrator 27.5.0, SVG Export Plug-In . SVG Version: 6.00 Build 0)  -->
<svg version="1.1" id="Layer_1" xmlns="http://www.w3.org/2000/svg" xmlns:xlink="http://www.w3.org/1999/xlink" x="0px" y="0px"
	 viewBox="0 0 3000 2025" style="enable-background:new 0 0 3000 2025;" xml:space="preserve">
<rect style="opacity:0.19;fill:#CCE0F8;" width="3000" height="2025"/>
<g>
	<g>
		<path style="fill:#005187;" d="M1601.564,1893.487h-211.416c-28.175,0-51.015-22.84-51.015-51.015v0
			c0-28.175,22.84-51.015,51.015-51.015h211.416c28.175,0,51.015,22.84,51.015,51.015v0
			C1652.58,1870.647,1629.74,1893.487,1601.564,1893.487z"/>
	</g>
	<g>
		<path style="fill:#005187;" d="M955.544,1540.452h4.13v28.53h13.671v3.465h-17.801V1540.452z"/>
		<path style="fill:#005187;" d="M997.934,1560.77c0,8.497-5.886,12.2-11.44,12.2c-6.219,0-11.013-4.558-11.013-11.82
			c0-7.69,5.032-12.2,11.393-12.2C993.472,1548.949,997.934,1553.744,997.934,1560.77z M979.706,1561.007
			c0,5.032,2.896,8.829,6.978,8.829c3.987,0,6.978-3.75,6.978-8.924c0-3.893-1.946-8.829-6.883-8.829
			C981.842,1552.083,979.706,1556.64,979.706,1561.007z"/>
		<path style="fill:#005187;" d="M1003.202,1556.64c0-2.706-0.047-5.032-0.19-7.168h3.655l0.143,4.51H1007
			c1.044-3.086,3.561-5.032,6.361-5.032c0.475,0,0.807,0.048,1.187,0.143v3.94c-0.427-0.095-0.855-0.143-1.424-0.143
			c-2.943,0-5.032,2.231-5.602,5.364c-0.095,0.569-0.19,1.234-0.19,1.946v12.247h-4.13V1556.64z"/>
		<path style="fill:#005187;" d="M1020.576,1561.719c0.095,5.649,3.703,7.976,7.88,7.976c2.991,0,4.794-0.522,6.361-1.188
			l0.712,2.991c-1.472,0.664-3.988,1.424-7.643,1.424c-7.073,0-11.298-4.652-11.298-11.583s4.083-12.39,10.776-12.39
			c7.5,0,9.494,6.599,9.494,10.823c0,0.854-0.095,1.52-0.143,1.946H1020.576z M1032.823,1558.729
			c0.047-2.658-1.092-6.788-5.792-6.788c-4.225,0-6.076,3.893-6.408,6.788H1032.823z"/>
		<path style="fill:#005187;" d="M1042.031,1555.69c0-2.374-0.047-4.32-0.19-6.219h3.655l0.19,3.703h0.142
			c1.282-2.184,3.418-4.226,7.216-4.226c3.133,0,5.506,1.899,6.503,4.604h0.095c0.712-1.281,1.614-2.278,2.563-2.99
			c1.376-1.044,2.896-1.614,5.079-1.614c3.038,0,7.548,1.994,7.548,9.969v13.529h-4.083v-13.007c0-4.415-1.614-7.073-4.984-7.073
			c-2.374,0-4.225,1.757-4.937,3.798c-0.19,0.569-0.333,1.329-0.333,2.089v14.193h-4.083v-13.767c0-3.655-1.614-6.313-4.794-6.313
			c-2.611,0-4.51,2.089-5.174,4.178c-0.237,0.617-0.332,1.329-0.332,2.041v13.861h-4.083V1555.69z"/>
		<path style="fill:#005187;" d="M1096.335,1543.016c0.048,1.424-0.997,2.563-2.658,2.563c-1.472,0-2.516-1.14-2.516-2.563
			c0-1.472,1.092-2.61,2.611-2.61C1095.338,1540.405,1096.335,1541.544,1096.335,1543.016z M1091.683,1572.447v-22.976h4.177v22.976
			H1091.683z"/>
		<path style="fill:#005187;" d="M1102.79,1556.972c0-2.942-0.095-5.316-0.19-7.5h3.75l0.19,3.94h0.095
			c1.709-2.801,4.415-4.463,8.165-4.463c5.554,0,9.731,4.7,9.731,11.678c0,8.26-5.032,12.343-10.443,12.343
			c-3.038,0-5.696-1.329-7.073-3.608h-0.095v12.485h-4.13V1556.972z M1106.92,1563.096c0,0.617,0.095,1.187,0.19,1.709
			c0.759,2.896,3.275,4.89,6.266,4.89c4.415,0,6.978-3.608,6.978-8.877c0-4.604-2.421-8.545-6.836-8.545
			c-2.848,0-5.506,2.041-6.313,5.174c-0.142,0.522-0.285,1.14-0.285,1.709V1563.096z"/>
		<path style="fill:#005187;" d="M1129.229,1568.175c1.234,0.808,3.418,1.661,5.507,1.661c3.038,0,4.462-1.519,4.462-3.417
			c0-1.994-1.187-3.086-4.272-4.226c-4.13-1.472-6.076-3.75-6.076-6.503c0-3.703,2.99-6.741,7.927-6.741
			c2.326,0,4.367,0.665,5.649,1.425l-1.044,3.038c-0.902-0.57-2.563-1.329-4.699-1.329c-2.469,0-3.845,1.424-3.845,3.133
			c0,1.898,1.376,2.753,4.367,3.893c3.987,1.519,6.029,3.513,6.029,6.931c0,4.035-3.133,6.883-8.592,6.883
			c-2.516,0-4.842-0.617-6.456-1.566L1129.229,1568.175z"/>
		<path style="fill:#005187;" d="M1167.822,1566.182c0,2.373,0.047,4.462,0.189,6.266h-3.703l-0.237-3.75h-0.095
			c-1.092,1.852-3.513,4.272-7.595,4.272c-3.608,0-7.928-1.994-7.928-10.063v-13.435h4.178v12.722c0,4.367,1.329,7.311,5.126,7.311
			c2.801,0,4.747-1.946,5.507-3.798c0.237-0.616,0.379-1.376,0.379-2.136v-14.099h4.178V1566.182z"/>
		<path style="fill:#005187;" d="M1174.751,1555.69c0-2.374-0.047-4.32-0.19-6.219h3.655l0.19,3.703h0.142
			c1.282-2.184,3.418-4.226,7.216-4.226c3.133,0,5.506,1.899,6.503,4.604h0.095c0.712-1.281,1.614-2.278,2.563-2.99
			c1.376-1.044,2.896-1.614,5.079-1.614c3.038,0,7.548,1.994,7.548,9.969v13.529h-4.083v-13.007c0-4.415-1.614-7.073-4.984-7.073
			c-2.374,0-4.225,1.757-4.937,3.798c-0.19,0.569-0.333,1.329-0.333,2.089v14.193h-4.083v-13.767c0-3.655-1.614-6.313-4.794-6.313
			c-2.611,0-4.51,2.089-5.174,4.178c-0.237,0.617-0.332,1.329-0.332,2.041v13.861h-4.083V1555.69z"/>
		<path style="fill:#005187;" d="M1244.246,1538.743v27.771c0,2.041,0.048,4.367,0.19,5.934h-3.75l-0.19-3.987h-0.095
			c-1.282,2.563-4.083,4.51-7.833,4.51c-5.554,0-9.827-4.7-9.827-11.678c-0.047-7.643,4.7-12.343,10.301-12.343
			c3.513,0,5.886,1.662,6.931,3.513h0.095v-13.719H1244.246z M1240.068,1558.823c0-0.522-0.047-1.234-0.19-1.756
			c-0.617-2.659-2.896-4.843-6.028-4.843c-4.32,0-6.883,3.798-6.883,8.877c0,4.652,2.278,8.497,6.788,8.497
			c2.801,0,5.364-1.851,6.124-4.984c0.143-0.569,0.19-1.139,0.19-1.804V1558.823z"/>
		<path style="fill:#005187;" d="M1271.967,1560.77c0,8.497-5.886,12.2-11.44,12.2c-6.219,0-11.013-4.558-11.013-11.82
			c0-7.69,5.032-12.2,11.393-12.2C1267.505,1548.949,1271.967,1553.744,1271.967,1560.77z M1253.739,1561.007
			c0,5.032,2.896,8.829,6.978,8.829c3.987,0,6.978-3.75,6.978-8.924c0-3.893-1.946-8.829-6.883-8.829
			C1255.875,1552.083,1253.739,1556.64,1253.739,1561.007z"/>
		<path style="fill:#005187;" d="M1277.235,1538.743h4.177v33.704h-4.177V1538.743z"/>
		<path style="fill:#005187;" d="M1309.229,1560.77c0,8.497-5.886,12.2-11.44,12.2c-6.219,0-11.013-4.558-11.013-11.82
			c0-7.69,5.032-12.2,11.393-12.2C1304.767,1548.949,1309.229,1553.744,1309.229,1560.77z M1291.001,1561.007
			c0,5.032,2.896,8.829,6.978,8.829c3.987,0,6.978-3.75,6.978-8.924c0-3.893-1.946-8.829-6.883-8.829
			C1293.137,1552.083,1291.001,1556.64,1291.001,1561.007z"/>
		<path style="fill:#005187;" d="M1314.498,1556.64c0-2.706-0.047-5.032-0.19-7.168h3.655l0.143,4.51h0.189
			c1.044-3.086,3.561-5.032,6.361-5.032c0.475,0,0.807,0.048,1.187,0.143v3.94c-0.427-0.095-0.854-0.143-1.424-0.143
			c-2.943,0-5.032,2.231-5.602,5.364c-0.095,0.569-0.19,1.234-0.19,1.946v12.247h-4.13V1556.64z"/>
		<path style="fill:#005187;" d="M1339.513,1568.175c1.234,0.808,3.418,1.661,5.507,1.661c3.038,0,4.462-1.519,4.462-3.417
			c0-1.994-1.187-3.086-4.272-4.226c-4.13-1.472-6.076-3.75-6.076-6.503c0-3.703,2.99-6.741,7.927-6.741
			c2.326,0,4.367,0.665,5.649,1.425l-1.044,3.038c-0.902-0.57-2.563-1.329-4.699-1.329c-2.469,0-3.845,1.424-3.845,3.133
			c0,1.898,1.376,2.753,4.367,3.893c3.987,1.519,6.029,3.513,6.029,6.931c0,4.035-3.133,6.883-8.592,6.883
			c-2.516,0-4.842-0.617-6.456-1.566L1339.513,1568.175z"/>
		<path style="fill:#005187;" d="M1363.532,1543.016c0.048,1.424-0.997,2.563-2.658,2.563c-1.472,0-2.516-1.14-2.516-2.563
			c0-1.472,1.092-2.61,2.611-2.61C1362.535,1540.405,1363.532,1541.544,1363.532,1543.016z M1358.88,1572.447v-22.976h4.177v22.976
			H1358.88z"/>
		<path style="fill:#005187;" d="M1375.019,1542.873v6.599H1381v3.181h-5.981v12.39c0,2.849,0.807,4.462,3.133,4.462
			c1.092,0,1.898-0.143,2.421-0.284l0.19,3.133c-0.807,0.332-2.089,0.569-3.703,0.569c-1.946,0-3.513-0.617-4.51-1.756
			c-1.187-1.234-1.614-3.275-1.614-5.981v-12.532h-3.56v-3.181h3.56v-5.507L1375.019,1542.873z"/>
		<path style="fill:#005187;" d="M1408.484,1572.447l-0.333-2.896h-0.143c-1.281,1.804-3.75,3.418-7.025,3.418
			c-4.652,0-7.025-3.275-7.025-6.599c0-5.554,4.937-8.592,13.813-8.545v-0.475c0-1.898-0.522-5.316-5.222-5.316
			c-2.136,0-4.367,0.664-5.981,1.709l-0.95-2.753c1.899-1.234,4.652-2.042,7.548-2.042c7.025,0,8.734,4.795,8.734,9.399v8.592
			c0,1.994,0.095,3.94,0.38,5.507H1408.484z M1407.867,1560.722c-4.557-0.095-9.731,0.713-9.731,5.175
			c0,2.706,1.804,3.987,3.94,3.987c2.991,0,4.89-1.898,5.554-3.845c0.142-0.428,0.237-0.902,0.237-1.329V1560.722z"/>
		<path style="fill:#005187;" d="M1418.642,1555.69c0-2.374-0.047-4.32-0.19-6.219h3.655l0.19,3.703h0.142
			c1.282-2.184,3.418-4.226,7.216-4.226c3.133,0,5.506,1.899,6.503,4.604h0.095c0.712-1.281,1.614-2.278,2.563-2.99
			c1.376-1.044,2.896-1.614,5.079-1.614c3.038,0,7.548,1.994,7.548,9.969v13.529h-4.083v-13.007c0-4.415-1.614-7.073-4.984-7.073
			c-2.374,0-4.225,1.757-4.937,3.798c-0.19,0.569-0.333,1.329-0.333,2.089v14.193h-4.083v-13.767c0-3.655-1.614-6.313-4.794-6.313
			c-2.611,0-4.51,2.089-5.174,4.178c-0.237,0.617-0.332,1.329-0.332,2.041v13.861h-4.083V1555.69z"/>
		<path style="fill:#005187;" d="M1460.557,1561.719c0.095,5.649,3.703,7.976,7.88,7.976c2.991,0,4.794-0.522,6.361-1.188
			l0.712,2.991c-1.472,0.664-3.988,1.424-7.643,1.424c-7.073,0-11.298-4.652-11.298-11.583s4.083-12.39,10.776-12.39
			c7.5,0,9.494,6.599,9.494,10.823c0,0.854-0.095,1.52-0.143,1.946H1460.557z M1472.804,1558.729
			c0.047-2.658-1.092-6.788-5.792-6.788c-4.225,0-6.076,3.893-6.408,6.788H1472.804z"/>
		<path style="fill:#005187;" d="M1487.044,1542.873v6.599h5.981v3.181h-5.981v12.39c0,2.849,0.807,4.462,3.133,4.462
			c1.092,0,1.898-0.143,2.421-0.284l0.19,3.133c-0.807,0.332-2.089,0.569-3.703,0.569c-1.946,0-3.513-0.617-4.51-1.756
			c-1.187-1.234-1.614-3.275-1.614-5.981v-12.532h-3.56v-3.181h3.56v-5.507L1487.044,1542.873z"/>
		<path style="fill:#005187;" d="M1494.876,1578.286c1.044-2.801,2.326-7.88,2.848-11.346l4.651-0.475
			c-1.092,4.035-3.18,9.305-4.509,11.535L1494.876,1578.286z"/>
		<path style="fill:#005187;" d="M1533.847,1571.593c-1.092,0.569-3.513,1.329-6.598,1.329c-6.931,0-11.44-4.699-11.44-11.725
			c0-7.073,4.842-12.2,12.342-12.2c2.469,0,4.652,0.617,5.792,1.187l-0.95,3.229c-0.996-0.57-2.563-1.092-4.842-1.092
			c-5.269,0-8.117,3.893-8.117,8.687c0,5.316,3.418,8.592,7.976,8.592c2.373,0,3.939-0.616,5.126-1.139L1533.847,1571.593z"/>
		<path style="fill:#005187;" d="M1559.243,1560.77c0,8.497-5.887,12.2-11.44,12.2c-6.219,0-11.014-4.558-11.014-11.82
			c0-7.69,5.032-12.2,11.394-12.2C1554.78,1548.949,1559.243,1553.744,1559.243,1560.77z M1541.015,1561.007
			c0,5.032,2.896,8.829,6.978,8.829c3.987,0,6.979-3.75,6.979-8.924c0-3.893-1.946-8.829-6.884-8.829
			C1543.15,1552.083,1541.015,1556.64,1541.015,1561.007z"/>
		<path style="fill:#005187;" d="M1564.511,1555.69c0-2.374-0.047-4.32-0.189-6.219h3.702l0.237,3.798h0.096
			c1.139-2.184,3.797-4.32,7.595-4.32c3.181,0,8.117,1.899,8.117,9.779v13.719h-4.177v-13.244c0-3.703-1.377-6.788-5.317-6.788
			c-2.753,0-4.889,1.946-5.601,4.272c-0.19,0.521-0.285,1.234-0.285,1.946v13.813h-4.178V1555.69z"/>
		<path style="fill:#005187;" d="M1590.286,1568.175c1.234,0.808,3.418,1.661,5.507,1.661c3.038,0,4.462-1.519,4.462-3.417
			c0-1.994-1.187-3.086-4.272-4.226c-4.13-1.472-6.076-3.75-6.076-6.503c0-3.703,2.99-6.741,7.928-6.741
			c2.326,0,4.367,0.665,5.648,1.425l-1.044,3.038c-0.902-0.57-2.563-1.329-4.699-1.329c-2.469,0-3.846,1.424-3.846,3.133
			c0,1.898,1.377,2.753,4.367,3.893c3.987,1.519,6.029,3.513,6.029,6.931c0,4.035-3.134,6.883-8.593,6.883
			c-2.516,0-4.842-0.617-6.455-1.566L1590.286,1568.175z"/>
		<path style="fill:#005187;" d="M1611.979,1561.719c0.095,5.649,3.702,7.976,7.88,7.976c2.99,0,4.794-0.522,6.36-1.188l0.713,2.991
			c-1.472,0.664-3.988,1.424-7.644,1.424c-7.072,0-11.298-4.652-11.298-11.583s4.083-12.39,10.776-12.39
			c7.5,0,9.494,6.599,9.494,10.823c0,0.854-0.096,1.52-0.143,1.946H1611.979z M1624.227,1558.729
			c0.047-2.658-1.092-6.788-5.792-6.788c-4.225,0-6.076,3.893-6.408,6.788H1624.227z"/>
		<path style="fill:#005187;" d="M1649.812,1571.593c-1.092,0.569-3.513,1.329-6.599,1.329c-6.931,0-11.44-4.699-11.44-11.725
			c0-7.073,4.843-12.2,12.343-12.2c2.469,0,4.652,0.617,5.791,1.187l-0.949,3.229c-0.997-0.57-2.563-1.092-4.842-1.092
			c-5.27,0-8.117,3.893-8.117,8.687c0,5.316,3.418,8.592,7.975,8.592c2.373,0,3.94-0.616,5.127-1.139L1649.812,1571.593z"/>
		<path style="fill:#005187;" d="M1660.349,1542.873v6.599h5.981v3.181h-5.981v12.39c0,2.849,0.807,4.462,3.133,4.462
			c1.092,0,1.898-0.143,2.421-0.284l0.19,3.133c-0.808,0.332-2.089,0.569-3.703,0.569c-1.946,0-3.513-0.617-4.51-1.756
			c-1.187-1.234-1.614-3.275-1.614-5.981v-12.532h-3.56v-3.181h3.56v-5.507L1660.349,1542.873z"/>
		<path style="fill:#005187;" d="M1673.07,1561.719c0.095,5.649,3.702,7.976,7.88,7.976c2.99,0,4.794-0.522,6.36-1.188l0.713,2.991
			c-1.472,0.664-3.988,1.424-7.644,1.424c-7.072,0-11.298-4.652-11.298-11.583s4.083-12.39,10.776-12.39
			c7.5,0,9.494,6.599,9.494,10.823c0,0.854-0.096,1.52-0.143,1.946H1673.07z M1685.317,1558.729
			c0.047-2.658-1.092-6.788-5.792-6.788c-4.225,0-6.076,3.893-6.408,6.788H1685.317z"/>
		<path style="fill:#005187;" d="M1699.557,1542.873v6.599h5.981v3.181h-5.981v12.39c0,2.849,0.808,4.462,3.134,4.462
			c1.092,0,1.898-0.143,2.421-0.284l0.189,3.133c-0.807,0.332-2.089,0.569-3.702,0.569c-1.946,0-3.514-0.617-4.51-1.756
			c-1.188-1.234-1.614-3.275-1.614-5.981v-12.532h-3.561v-3.181h3.561v-5.507L1699.557,1542.873z"/>
		<path style="fill:#005187;" d="M1729.463,1566.182c0,2.373,0.047,4.462,0.189,6.266h-3.703l-0.237-3.75h-0.095
			c-1.092,1.852-3.513,4.272-7.595,4.272c-3.608,0-7.928-1.994-7.928-10.063v-13.435h4.178v12.722c0,4.367,1.329,7.311,5.126,7.311
			c2.801,0,4.747-1.946,5.507-3.798c0.237-0.616,0.38-1.376,0.38-2.136v-14.099h4.178V1566.182z"/>
		<path style="fill:#005187;" d="M1736.392,1556.64c0-2.706-0.047-5.032-0.189-7.168h3.655l0.143,4.51h0.189
			c1.044-3.086,3.561-5.032,6.361-5.032c0.475,0,0.807,0.048,1.187,0.143v3.94c-0.428-0.095-0.854-0.143-1.424-0.143
			c-2.943,0-5.032,2.231-5.602,5.364c-0.096,0.569-0.19,1.234-0.19,1.946v12.247h-4.13V1556.64z"/>
		<path style="fill:#005187;" d="M1774.699,1572.447l-0.333-2.896h-0.143c-1.281,1.804-3.75,3.418-7.025,3.418
			c-4.651,0-7.025-3.275-7.025-6.599c0-5.554,4.937-8.592,13.813-8.545v-0.475c0-1.898-0.521-5.316-5.222-5.316
			c-2.136,0-4.367,0.664-5.98,1.709l-0.95-2.753c1.899-1.234,4.652-2.042,7.548-2.042c7.025,0,8.734,4.795,8.734,9.399v8.592
			c0,1.994,0.096,3.94,0.38,5.507H1774.699z M1774.082,1560.722c-4.558-0.095-9.731,0.713-9.731,5.175
			c0,2.706,1.804,3.987,3.939,3.987c2.991,0,4.89-1.898,5.555-3.845c0.142-0.428,0.237-0.902,0.237-1.329V1560.722z"/>
		<path style="fill:#005187;" d="M1804.699,1538.743v27.771c0,2.041,0.048,4.367,0.189,5.934h-3.75l-0.189-3.987h-0.095
			c-1.282,2.563-4.083,4.51-7.833,4.51c-5.554,0-9.826-4.7-9.826-11.678c-0.048-7.643,4.699-12.343,10.301-12.343
			c3.513,0,5.887,1.662,6.931,3.513h0.095v-13.719H1804.699z M1800.521,1558.823c0-0.522-0.047-1.234-0.189-1.756
			c-0.617-2.659-2.896-4.843-6.029-4.843c-4.319,0-6.883,3.798-6.883,8.877c0,4.652,2.278,8.497,6.788,8.497
			c2.801,0,5.364-1.851,6.124-4.984c0.143-0.569,0.189-1.139,0.189-1.804V1558.823z"/>
		<path style="fill:#005187;" d="M1816.28,1543.016c0.048,1.424-0.996,2.563-2.658,2.563c-1.472,0-2.516-1.14-2.516-2.563
			c0-1.472,1.092-2.61,2.611-2.61C1815.284,1540.405,1816.28,1541.544,1816.28,1543.016z M1811.629,1572.447v-22.976h4.177v22.976
			H1811.629z"/>
		<path style="fill:#005187;" d="M1822.736,1556.972c0-2.942-0.095-5.316-0.19-7.5h3.75l0.19,3.94h0.095
			c1.709-2.801,4.415-4.463,8.165-4.463c5.554,0,9.731,4.7,9.731,11.678c0,8.26-5.032,12.343-10.443,12.343
			c-3.038,0-5.696-1.329-7.073-3.608h-0.095v12.485h-4.13V1556.972z M1826.866,1563.096c0,0.617,0.095,1.187,0.189,1.709
			c0.76,2.896,3.275,4.89,6.267,4.89c4.414,0,6.978-3.608,6.978-8.877c0-4.604-2.421-8.545-6.836-8.545
			c-2.848,0-5.506,2.041-6.313,5.174c-0.142,0.522-0.284,1.14-0.284,1.709V1563.096z"/>
		<path style="fill:#005187;" d="M1854.396,1543.016c0.048,1.424-0.996,2.563-2.658,2.563c-1.472,0-2.516-1.14-2.516-2.563
			c0-1.472,1.092-2.61,2.611-2.61C1853.4,1540.405,1854.396,1541.544,1854.396,1543.016z M1849.745,1572.447v-22.976h4.177v22.976
			H1849.745z"/>
		<path style="fill:#005187;" d="M1860.282,1568.175c1.234,0.808,3.418,1.661,5.507,1.661c3.038,0,4.462-1.519,4.462-3.417
			c0-1.994-1.187-3.086-4.271-4.226c-4.13-1.472-6.076-3.75-6.076-6.503c0-3.703,2.99-6.741,7.927-6.741
			c2.326,0,4.367,0.665,5.649,1.425l-1.045,3.038c-0.901-0.57-2.563-1.329-4.699-1.329c-2.469,0-3.845,1.424-3.845,3.133
			c0,1.898,1.376,2.753,4.367,3.893c3.987,1.519,6.028,3.513,6.028,6.931c0,4.035-3.133,6.883-8.592,6.883
			c-2.516,0-4.842-0.617-6.456-1.566L1860.282,1568.175z"/>
		<path style="fill:#005187;" d="M1896.026,1571.593c-1.092,0.569-3.513,1.329-6.598,1.329c-6.931,0-11.44-4.699-11.44-11.725
			c0-7.073,4.842-12.2,12.342-12.2c2.469,0,4.652,0.617,5.792,1.187l-0.95,3.229c-0.996-0.57-2.563-1.092-4.842-1.092
			c-5.269,0-8.117,3.893-8.117,8.687c0,5.316,3.418,8.592,7.976,8.592c2.373,0,3.939-0.616,5.126-1.139L1896.026,1571.593z"/>
		<path style="fill:#005187;" d="M1905.567,1543.016c0.048,1.424-0.996,2.563-2.658,2.563c-1.472,0-2.516-1.14-2.516-2.563
			c0-1.472,1.092-2.61,2.611-2.61C1904.571,1540.405,1905.567,1541.544,1905.567,1543.016z M1900.916,1572.447v-22.976h4.177v22.976
			H1900.916z"/>
		<path style="fill:#005187;" d="M1912.022,1555.69c0-2.374-0.047-4.32-0.189-6.219h3.702l0.237,3.798h0.096
			c1.139-2.184,3.797-4.32,7.595-4.32c3.181,0,8.117,1.899,8.117,9.779v13.719h-4.177v-13.244c0-3.703-1.377-6.788-5.317-6.788
			c-2.753,0-4.889,1.946-5.601,4.272c-0.19,0.521-0.285,1.234-0.285,1.946v13.813h-4.178V1555.69z"/>
		<path style="fill:#005187;" d="M1958.162,1549.472c-0.095,1.661-0.189,3.513-0.189,6.313v13.339c0,5.27-1.045,8.497-3.275,10.491
			c-2.231,2.089-5.459,2.753-8.354,2.753c-2.754,0-5.792-0.664-7.644-1.898l1.045-3.181c1.519,0.949,3.893,1.804,6.74,1.804
			c4.272,0,7.405-2.23,7.405-8.022v-2.563h-0.095c-1.281,2.137-3.75,3.846-7.311,3.846c-5.696,0-9.778-4.842-9.778-11.203
			c0-7.785,5.079-12.2,10.349-12.2c3.987,0,6.171,2.089,7.168,3.988h0.095l0.189-3.466H1958.162z M1953.843,1558.538
			c0-0.712-0.048-1.329-0.237-1.898c-0.76-2.421-2.801-4.415-5.839-4.415c-3.987,0-6.836,3.371-6.836,8.688
			c0,4.51,2.278,8.26,6.788,8.26c2.563,0,4.89-1.614,5.792-4.272c0.237-0.712,0.332-1.519,0.332-2.231V1558.538z"/>
		<path style="fill:#005187;" d="M1977.291,1561.719c0.095,5.649,3.703,7.976,7.88,7.976c2.991,0,4.795-0.522,6.361-1.188
			l0.712,2.991c-1.472,0.664-3.987,1.424-7.643,1.424c-7.073,0-11.298-4.652-11.298-11.583s4.082-12.39,10.775-12.39
			c7.501,0,9.494,6.599,9.494,10.823c0,0.854-0.095,1.52-0.143,1.946H1977.291z M1989.538,1558.729
			c0.048-2.658-1.092-6.788-5.791-6.788c-4.225,0-6.076,3.893-6.408,6.788H1989.538z"/>
		<path style="fill:#005187;" d="M1998.746,1538.743h4.178v33.704h-4.178V1538.743z"/>
		<path style="fill:#005187;" d="M2014.601,1543.016c0.048,1.424-0.997,2.563-2.658,2.563c-1.472,0-2.516-1.14-2.516-2.563
			c0-1.472,1.092-2.61,2.61-2.61C2013.604,1540.405,2014.601,1541.544,2014.601,1543.016z M2009.948,1572.447v-22.976h4.178v22.976
			H2009.948z"/>
		<path style="fill:#005187;" d="M2026.088,1542.873v6.599h5.981v3.181h-5.981v12.39c0,2.849,0.807,4.462,3.133,4.462
			c1.092,0,1.898-0.143,2.421-0.284l0.19,3.133c-0.808,0.332-2.089,0.569-3.703,0.569c-1.946,0-3.513-0.617-4.51-1.756
			c-1.187-1.234-1.614-3.275-1.614-5.981v-12.532h-3.56v-3.181h3.56v-5.507L2026.088,1542.873z"/>
		<path style="fill:#005187;" d="M2033.92,1578.286c1.044-2.801,2.326-7.88,2.849-11.346l4.651-0.475
			c-1.092,4.035-3.181,9.305-4.51,11.535L2033.92,1578.286z"/>
		<path style="fill:#005187;" d="M825.387,1625.137c1.234,0.808,3.418,1.661,5.507,1.661c3.038,0,4.462-1.519,4.462-3.417
			c0-1.994-1.187-3.086-4.272-4.226c-4.13-1.472-6.076-3.75-6.076-6.503c0-3.703,2.99-6.741,7.927-6.741
			c2.326,0,4.367,0.665,5.649,1.425l-1.044,3.038c-0.902-0.57-2.563-1.329-4.699-1.329c-2.469,0-3.845,1.424-3.845,3.133
			c0,1.898,1.377,2.753,4.367,3.893c3.987,1.519,6.029,3.513,6.029,6.931c0,4.035-3.133,6.883-8.592,6.883
			c-2.516,0-4.842-0.617-6.456-1.566L825.387,1625.137z"/>
		<path style="fill:#005187;" d="M847.08,1618.681c0.095,5.649,3.703,7.976,7.88,7.976c2.991,0,4.794-0.522,6.361-1.188l0.712,2.991
			c-1.472,0.664-3.988,1.424-7.643,1.424c-7.073,0-11.298-4.652-11.298-11.583s4.083-12.39,10.776-12.39
			c7.5,0,9.494,6.599,9.494,10.823c0,0.854-0.095,1.52-0.143,1.946H847.08z M859.327,1615.69c0.047-2.658-1.092-6.788-5.792-6.788
			c-4.225,0-6.076,3.893-6.408,6.788H859.327z"/>
		<path style="fill:#005187;" d="M888.377,1595.705v27.771c0,2.041,0.048,4.367,0.19,5.934h-3.75l-0.19-3.987h-0.095
			c-1.282,2.563-4.082,4.51-7.832,4.51c-5.554,0-9.827-4.7-9.827-11.678c-0.047-7.643,4.7-12.343,10.301-12.343
			c3.513,0,5.886,1.662,6.931,3.513h0.095v-13.719H888.377z M884.2,1615.785c0-0.522-0.047-1.234-0.19-1.756
			c-0.617-2.659-2.896-4.843-6.028-4.843c-4.32,0-6.883,3.798-6.883,8.877c0,4.652,2.278,8.497,6.788,8.497
			c2.801,0,5.364-1.851,6.124-4.984c0.143-0.569,0.19-1.139,0.19-1.804V1615.785z"/>
		<path style="fill:#005187;" d="M925.212,1595.705v27.771c0,2.041,0.048,4.367,0.19,5.934h-3.75l-0.19-3.987h-0.095
			c-1.282,2.563-4.083,4.51-7.833,4.51c-5.554,0-9.827-4.7-9.827-11.678c-0.047-7.643,4.7-12.343,10.301-12.343
			c3.513,0,5.886,1.662,6.931,3.513h0.095v-13.719H925.212z M921.035,1615.785c0-0.522-0.047-1.234-0.19-1.756
			c-0.617-2.659-2.895-4.843-6.028-4.843c-4.32,0-6.883,3.798-6.883,8.877c0,4.652,2.278,8.497,6.788,8.497
			c2.801,0,5.364-1.851,6.123-4.984c0.143-0.569,0.19-1.139,0.19-1.804V1615.785z"/>
		<path style="fill:#005187;" d="M952.935,1617.731c0,8.497-5.886,12.2-11.44,12.2c-6.219,0-11.013-4.558-11.013-11.82
			c0-7.69,5.032-12.2,11.393-12.2C948.472,1605.911,952.935,1610.706,952.935,1617.731z M934.706,1617.969
			c0,5.032,2.896,8.829,6.978,8.829c3.987,0,6.978-3.75,6.978-8.924c0-3.893-1.946-8.829-6.883-8.829
			C936.842,1609.045,934.706,1613.602,934.706,1617.969z"/>
		<path style="fill:#005187;" d="M970.591,1618.681c0.095,5.649,3.703,7.976,7.88,7.976c2.991,0,4.794-0.522,6.361-1.188
			l0.712,2.991c-1.472,0.664-3.988,1.424-7.643,1.424c-7.073,0-11.298-4.652-11.298-11.583s4.083-12.39,10.776-12.39
			c7.5,0,9.494,6.599,9.494,10.823c0,0.854-0.095,1.52-0.142,1.946H970.591z M982.838,1615.69c0.047-2.658-1.092-6.788-5.792-6.788
			c-4.225,0-6.076,3.893-6.408,6.788H982.838z"/>
		<path style="fill:#005187;" d="M996.699,1599.978c0.048,1.424-0.997,2.563-2.658,2.563c-1.472,0-2.516-1.14-2.516-2.563
			c0-1.472,1.092-2.61,2.611-2.61C995.702,1597.367,996.699,1598.506,996.699,1599.978z M992.047,1629.409v-22.976h4.177v22.976
			H992.047z"/>
		<path style="fill:#005187;" d="M1022.38,1623.144c0,2.373,0.047,4.462,0.189,6.266h-3.703l-0.237-3.75h-0.095
			c-1.092,1.852-3.513,4.272-7.595,4.272c-3.608,0-7.928-1.994-7.928-10.063v-13.435h4.178v12.722c0,4.367,1.329,7.311,5.126,7.311
			c2.801,0,4.747-1.946,5.507-3.798c0.237-0.616,0.379-1.376,0.379-2.136v-14.099h4.178V1623.144z"/>
		<path style="fill:#005187;" d="M1028.739,1625.137c1.234,0.808,3.418,1.661,5.507,1.661c3.038,0,4.462-1.519,4.462-3.417
			c0-1.994-1.187-3.086-4.272-4.226c-4.13-1.472-6.076-3.75-6.076-6.503c0-3.703,2.99-6.741,7.927-6.741
			c2.326,0,4.367,0.665,5.649,1.425l-1.044,3.038c-0.902-0.57-2.563-1.329-4.699-1.329c-2.469,0-3.845,1.424-3.845,3.133
			c0,1.898,1.376,2.753,4.367,3.893c3.987,1.519,6.029,3.513,6.029,6.931c0,4.035-3.133,6.883-8.592,6.883
			c-2.516,0-4.842-0.617-6.456-1.566L1028.739,1625.137z"/>
		<path style="fill:#005187;" d="M1048.106,1612.652c0-2.374-0.047-4.32-0.19-6.219h3.655l0.19,3.703h0.142
			c1.282-2.184,3.418-4.226,7.216-4.226c3.133,0,5.506,1.899,6.503,4.604h0.095c0.712-1.281,1.614-2.278,2.563-2.99
			c1.376-1.044,2.896-1.614,5.079-1.614c3.038,0,7.548,1.994,7.548,9.969v13.529h-4.083v-13.007c0-4.415-1.614-7.073-4.984-7.073
			c-2.374,0-4.225,1.757-4.937,3.798c-0.19,0.569-0.333,1.329-0.333,2.089v14.193h-4.083v-13.767c0-3.655-1.614-6.313-4.794-6.313
			c-2.611,0-4.51,2.089-5.174,4.178c-0.237,0.617-0.332,1.329-0.332,2.041v13.861h-4.083V1612.652z"/>
		<path style="fill:#005187;" d="M1108.487,1617.731c0,8.497-5.886,12.2-11.44,12.2c-6.219,0-11.013-4.558-11.013-11.82
			c0-7.69,5.032-12.2,11.393-12.2C1104.025,1605.911,1108.487,1610.706,1108.487,1617.731z M1090.259,1617.969
			c0,5.032,2.896,8.829,6.978,8.829c3.987,0,6.978-3.75,6.978-8.924c0-3.893-1.946-8.829-6.883-8.829
			C1092.395,1609.045,1090.259,1613.602,1090.259,1617.969z"/>
		<path style="fill:#005187;" d="M1133.598,1595.705v27.771c0,2.041,0.048,4.367,0.19,5.934h-3.75l-0.19-3.987h-0.095
			c-1.282,2.563-4.083,4.51-7.833,4.51c-5.554,0-9.827-4.7-9.827-11.678c-0.047-7.643,4.7-12.343,10.301-12.343
			c3.513,0,5.886,1.662,6.931,3.513h0.095v-13.719H1133.598z M1129.42,1615.785c0-0.522-0.047-1.234-0.19-1.756
			c-0.617-2.659-2.896-4.843-6.029-4.843c-4.319,0-6.883,3.798-6.883,8.877c0,4.652,2.278,8.497,6.788,8.497
			c2.801,0,5.364-1.851,6.124-4.984c0.143-0.569,0.19-1.139,0.19-1.804V1615.785z"/>
		<path style="fill:#005187;" d="M1155.622,1599.835v6.599h5.981v3.181h-5.981v12.39c0,2.848,0.807,4.462,3.133,4.462
			c1.092,0,1.898-0.143,2.421-0.284l0.19,3.133c-0.807,0.332-2.089,0.569-3.703,0.569c-1.946,0-3.513-0.617-4.51-1.756
			c-1.187-1.234-1.614-3.276-1.614-5.981v-12.532h-3.56v-3.181h3.56v-5.507L1155.622,1599.835z"/>
		<path style="fill:#005187;" d="M1168.344,1618.681c0.095,5.649,3.703,7.976,7.88,7.976c2.991,0,4.794-0.522,6.361-1.188
			l0.712,2.991c-1.472,0.664-3.988,1.424-7.643,1.424c-7.073,0-11.298-4.652-11.298-11.583s4.083-12.39,10.776-12.39
			c7.5,0,9.494,6.599,9.494,10.823c0,0.854-0.095,1.52-0.143,1.946H1168.344z M1180.591,1615.69
			c0.047-2.658-1.092-6.788-5.792-6.788c-4.225,0-6.076,3.893-6.408,6.788H1180.591z"/>
		<path style="fill:#005187;" d="M1189.799,1612.652c0-2.374-0.047-4.32-0.19-6.219h3.655l0.19,3.703h0.142
			c1.282-2.184,3.418-4.226,7.216-4.226c3.133,0,5.506,1.899,6.503,4.604h0.095c0.712-1.281,1.614-2.278,2.563-2.99
			c1.376-1.044,2.896-1.614,5.079-1.614c3.038,0,7.548,1.994,7.548,9.969v13.529h-4.083v-13.007c0-4.415-1.614-7.073-4.984-7.073
			c-2.374,0-4.225,1.757-4.937,3.798c-0.19,0.569-0.333,1.329-0.333,2.089v14.193h-4.083v-13.767c0-3.655-1.614-6.313-4.794-6.313
			c-2.611,0-4.51,2.089-5.174,4.178c-0.237,0.617-0.332,1.329-0.332,2.041v13.861h-4.083V1612.652z"/>
		<path style="fill:#005187;" d="M1229.388,1613.934c0-2.942-0.095-5.316-0.19-7.5h3.75l0.19,3.94h0.095
			c1.709-2.801,4.415-4.463,8.165-4.463c5.554,0,9.731,4.7,9.731,11.678c0,8.26-5.032,12.343-10.443,12.343
			c-3.038,0-5.696-1.329-7.073-3.608h-0.095v12.485h-4.13V1613.934z M1233.518,1620.058c0,0.617,0.095,1.187,0.19,1.709
			c0.759,2.896,3.275,4.89,6.266,4.89c4.415,0,6.978-3.608,6.978-8.877c0-4.604-2.421-8.545-6.836-8.545
			c-2.848,0-5.506,2.041-6.313,5.174c-0.142,0.522-0.285,1.14-0.285,1.709V1620.058z"/>
		<path style="fill:#005187;" d="M1277.188,1617.731c0,8.497-5.886,12.2-11.44,12.2c-6.219,0-11.013-4.558-11.013-11.82
			c0-7.69,5.032-12.2,11.393-12.2C1272.726,1605.911,1277.188,1610.706,1277.188,1617.731z M1258.96,1617.969
			c0,5.032,2.896,8.829,6.978,8.829c3.987,0,6.978-3.75,6.978-8.924c0-3.893-1.946-8.829-6.883-8.829
			C1261.096,1609.045,1258.96,1613.602,1258.96,1617.969z"/>
		<path style="fill:#005187;" d="M1282.457,1613.602c0-2.706-0.047-5.032-0.19-7.168h3.655l0.143,4.51h0.189
			c1.044-3.086,3.561-5.032,6.361-5.032c0.475,0,0.807,0.048,1.187,0.143v3.94c-0.427-0.095-0.854-0.143-1.424-0.143
			c-2.943,0-5.032,2.231-5.602,5.364c-0.095,0.569-0.19,1.234-0.19,1.946v12.247h-4.13V1613.602z"/>
		<path style="fill:#005187;" d="M1312.693,1599.978c0.048,1.424-0.997,2.563-2.658,2.563c-1.472,0-2.516-1.14-2.516-2.563
			c0-1.472,1.092-2.61,2.611-2.61C1311.697,1597.367,1312.693,1598.506,1312.693,1599.978z M1308.042,1629.409v-22.976h4.177v22.976
			H1308.042z"/>
		<path style="fill:#005187;" d="M1319.149,1612.652c0-2.374-0.047-4.32-0.19-6.219h3.703l0.237,3.798h0.095
			c1.139-2.184,3.797-4.32,7.595-4.32c3.18,0,8.117,1.899,8.117,9.779v13.719h-4.177v-13.244c0-3.703-1.376-6.788-5.317-6.788
			c-2.753,0-4.889,1.946-5.601,4.272c-0.19,0.521-0.285,1.234-0.285,1.946v13.813h-4.177V1612.652z"/>
		<path style="fill:#005187;" d="M1361.871,1628.555c-1.092,0.569-3.513,1.329-6.598,1.329c-6.931,0-11.44-4.699-11.44-11.725
			c0-7.073,4.842-12.2,12.342-12.2c2.469,0,4.652,0.617,5.792,1.187l-0.95,3.229c-0.997-0.57-2.563-1.092-4.842-1.092
			c-5.269,0-8.117,3.893-8.117,8.687c0,5.316,3.418,8.592,7.975,8.592c2.373,0,3.94-0.616,5.126-1.139L1361.871,1628.555z"/>
		<path style="fill:#005187;" d="M1371.412,1599.978c0.048,1.424-0.997,2.563-2.658,2.563c-1.472,0-2.516-1.14-2.516-2.563
			c0-1.472,1.092-2.61,2.611-2.61C1370.415,1597.367,1371.412,1598.506,1371.412,1599.978z M1366.76,1629.409v-22.976h4.177v22.976
			H1366.76z"/>
		<path style="fill:#005187;" d="M1397.709,1595.705v27.771c0,2.041,0.048,4.367,0.19,5.934h-3.75l-0.19-3.987h-0.095
			c-1.282,2.563-4.083,4.51-7.833,4.51c-5.554,0-9.827-4.7-9.827-11.678c-0.047-7.643,4.7-12.343,10.301-12.343
			c3.513,0,5.886,1.662,6.931,3.513h0.095v-13.719H1397.709z M1393.532,1615.785c0-0.522-0.047-1.234-0.19-1.756
			c-0.617-2.659-2.896-4.843-6.028-4.843c-4.32,0-6.883,3.798-6.883,8.877c0,4.652,2.278,8.497,6.788,8.497
			c2.801,0,5.364-1.851,6.124-4.984c0.143-0.569,0.19-1.139,0.19-1.804V1615.785z"/>
		<path style="fill:#005187;" d="M1409.291,1599.978c0.048,1.424-0.997,2.563-2.658,2.563c-1.472,0-2.516-1.14-2.516-2.563
			c0-1.472,1.092-2.61,2.611-2.61C1408.294,1597.367,1409.291,1598.506,1409.291,1599.978z M1404.639,1629.409v-22.976h4.177v22.976
			H1404.639z"/>
		<path style="fill:#005187;" d="M1435.589,1595.705v27.771c0,2.041,0.048,4.367,0.19,5.934h-3.75l-0.19-3.987h-0.095
			c-1.282,2.563-4.083,4.51-7.833,4.51c-5.554,0-9.827-4.7-9.827-11.678c-0.047-7.643,4.7-12.343,10.301-12.343
			c3.513,0,5.886,1.662,6.931,3.513h0.095v-13.719H1435.589z M1431.412,1615.785c0-0.522-0.047-1.234-0.19-1.756
			c-0.617-2.659-2.896-4.843-6.029-4.843c-4.319,0-6.883,3.798-6.883,8.877c0,4.652,2.278,8.497,6.788,8.497
			c2.801,0,5.364-1.851,6.124-4.984c0.143-0.569,0.19-1.139,0.19-1.804V1615.785z"/>
		<path style="fill:#005187;" d="M1461.744,1623.144c0,2.373,0.047,4.462,0.189,6.266h-3.703l-0.237-3.75h-0.095
			c-1.092,1.852-3.513,4.272-7.595,4.272c-3.608,0-7.928-1.994-7.928-10.063v-13.435h4.178v12.722c0,4.367,1.329,7.311,5.126,7.311
			c2.801,0,4.747-1.946,5.507-3.798c0.237-0.616,0.379-1.376,0.379-2.136v-14.099h4.178V1623.144z"/>
		<path style="fill:#005187;" d="M1468.673,1612.652c0-2.374-0.047-4.32-0.19-6.219h3.703l0.237,3.798h0.095
			c1.139-2.184,3.797-4.32,7.595-4.32c3.18,0,8.117,1.899,8.117,9.779v13.719h-4.177v-13.244c0-3.703-1.376-6.788-5.317-6.788
			c-2.753,0-4.889,1.946-5.601,4.272c-0.19,0.521-0.285,1.234-0.285,1.946v13.813h-4.177V1612.652z"/>
		<path style="fill:#005187;" d="M1499.86,1599.835v6.599h5.981v3.181h-5.981v12.39c0,2.848,0.807,4.462,3.133,4.462
			c1.092,0,1.898-0.143,2.421-0.284l0.19,3.133c-0.808,0.332-2.089,0.569-3.703,0.569c-1.946,0-3.513-0.617-4.509-1.756
			c-1.187-1.234-1.614-3.276-1.614-5.981v-12.532h-3.56v-3.181h3.56v-5.507L1499.86,1599.835z"/>
		<path style="fill:#005187;" d="M1539.828,1623.144c0,2.373,0.048,4.462,0.189,6.266h-3.702l-0.237-3.75h-0.095
			c-1.092,1.852-3.513,4.272-7.596,4.272c-3.607,0-7.928-1.994-7.928-10.063v-13.435h4.178v12.722c0,4.367,1.329,7.311,5.127,7.311
			c2.801,0,4.747-1.946,5.507-3.798c0.237-0.616,0.379-1.376,0.379-2.136v-14.099h4.178V1623.144z"/>
		<path style="fill:#005187;" d="M1551.79,1599.835v6.599h5.981v3.181h-5.981v12.39c0,2.848,0.807,4.462,3.133,4.462
			c1.092,0,1.898-0.143,2.421-0.284l0.19,3.133c-0.808,0.332-2.089,0.569-3.703,0.569c-1.946,0-3.513-0.617-4.51-1.756
			c-1.187-1.234-1.614-3.276-1.614-5.981v-12.532h-3.56v-3.181h3.56v-5.507L1551.79,1599.835z"/>
		<path style="fill:#005187;" d="M1572.532,1595.705h4.178v33.704h-4.178V1595.705z"/>
		<path style="fill:#005187;" d="M1596.457,1629.409l-0.333-2.896h-0.143c-1.281,1.804-3.75,3.418-7.025,3.418
			c-4.651,0-7.025-3.275-7.025-6.599c0-5.554,4.937-8.592,13.813-8.545v-0.475c0-1.898-0.521-5.316-5.222-5.316
			c-2.136,0-4.367,0.665-5.98,1.709l-0.95-2.753c1.899-1.234,4.652-2.042,7.548-2.042c7.025,0,8.734,4.795,8.734,9.399v8.592
			c0,1.994,0.096,3.94,0.38,5.507H1596.457z M1595.84,1617.684c-4.558-0.095-9.731,0.713-9.731,5.175
			c0,2.706,1.804,3.987,3.939,3.987c2.991,0,4.89-1.898,5.555-3.845c0.142-0.428,0.237-0.902,0.237-1.329V1617.684z"/>
		<path style="fill:#005187;" d="M1606.425,1629.409c0.095-1.566,0.189-3.893,0.189-5.934v-27.771h4.13v14.432h0.095
			c1.472-2.563,4.13-4.226,7.833-4.226c5.696,0,9.731,4.747,9.684,11.726c0,8.212-5.174,12.295-10.301,12.295
			c-3.323,0-5.981-1.282-7.69-4.32h-0.142l-0.19,3.798H1606.425z M1610.744,1620.2c0,0.521,0.095,1.044,0.19,1.519
			c0.807,2.896,3.228,4.89,6.266,4.89c4.367,0,6.979-3.561,6.979-8.829c0-4.604-2.374-8.545-6.836-8.545
			c-2.849,0-5.507,1.946-6.361,5.127c-0.095,0.475-0.237,1.044-0.237,1.709V1620.2z"/>
		<path style="fill:#005187;" d="M1654.415,1617.731c0,8.497-5.886,12.2-11.44,12.2c-6.219,0-11.013-4.558-11.013-11.82
			c0-7.69,5.031-12.2,11.393-12.2C1649.953,1605.911,1654.415,1610.706,1654.415,1617.731z M1636.187,1617.969
			c0,5.032,2.896,8.829,6.979,8.829c3.987,0,6.978-3.75,6.978-8.924c0-3.893-1.946-8.829-6.883-8.829
			S1636.187,1613.602,1636.187,1617.969z"/>
		<path style="fill:#005187;" d="M1659.684,1613.602c0-2.706-0.048-5.032-0.19-7.168h3.655l0.143,4.51h0.189
			c1.045-3.086,3.561-5.032,6.361-5.032c0.475,0,0.807,0.048,1.187,0.143v3.94c-0.427-0.095-0.854-0.143-1.424-0.143
			c-2.943,0-5.032,2.231-5.602,5.364c-0.095,0.569-0.189,1.234-0.189,1.946v12.247h-4.13V1613.602z"/>
		<path style="fill:#005187;" d="M1677.058,1618.681c0.095,5.649,3.702,7.976,7.88,7.976c2.99,0,4.794-0.522,6.36-1.188l0.713,2.991
			c-1.472,0.664-3.988,1.424-7.644,1.424c-7.072,0-11.298-4.652-11.298-11.583s4.083-12.39,10.776-12.39
			c7.5,0,9.494,6.599,9.494,10.823c0,0.854-0.096,1.52-0.143,1.946H1677.058z M1689.305,1615.69
			c0.047-2.658-1.092-6.788-5.792-6.788c-4.225,0-6.076,3.893-6.408,6.788H1689.305z"/>
		<path style="fill:#005187;" d="M1710.901,1618.681c0.095,5.649,3.703,7.976,7.88,7.976c2.991,0,4.795-0.522,6.361-1.188
			l0.712,2.991c-1.472,0.664-3.987,1.424-7.643,1.424c-7.073,0-11.298-4.652-11.298-11.583s4.082-12.39,10.775-12.39
			c7.501,0,9.494,6.599,9.494,10.823c0,0.854-0.095,1.52-0.143,1.946H1710.901z M1723.148,1615.69
			c0.048-2.658-1.092-6.788-5.791-6.788c-4.225,0-6.076,3.893-6.408,6.788H1723.148z"/>
		<path style="fill:#005187;" d="M1737.389,1599.835v6.599h5.981v3.181h-5.981v12.39c0,2.848,0.807,4.462,3.133,4.462
			c1.092,0,1.898-0.143,2.421-0.284l0.19,3.133c-0.808,0.332-2.089,0.569-3.703,0.569c-1.946,0-3.513-0.617-4.51-1.756
			c-1.187-1.234-1.614-3.276-1.614-5.981v-12.532h-3.56v-3.181h3.56v-5.507L1737.389,1599.835z"/>
		<path style="fill:#005187;" d="M1777.974,1595.705v27.771c0,2.041,0.048,4.367,0.189,5.934h-3.75l-0.189-3.987h-0.095
			c-1.282,2.563-4.083,4.51-7.833,4.51c-5.554,0-9.826-4.7-9.826-11.678c-0.048-7.643,4.699-12.343,10.301-12.343
			c3.513,0,5.887,1.662,6.931,3.513h0.095v-13.719H1777.974z M1773.796,1615.785c0-0.522-0.047-1.234-0.189-1.756
			c-0.617-2.659-2.896-4.843-6.029-4.843c-4.319,0-6.883,3.798-6.883,8.877c0,4.652,2.278,8.497,6.788,8.497
			c2.801,0,5.364-1.851,6.124-4.984c0.143-0.569,0.189-1.139,0.189-1.804V1615.785z"/>
		<path style="fill:#005187;" d="M1805.695,1617.731c0,8.497-5.886,12.2-11.44,12.2c-6.219,0-11.013-4.558-11.013-11.82
			c0-7.69,5.031-12.2,11.393-12.2C1801.233,1605.911,1805.695,1610.706,1805.695,1617.731z M1787.467,1617.969
			c0,5.032,2.896,8.829,6.979,8.829c3.987,0,6.978-3.75,6.978-8.924c0-3.893-1.946-8.829-6.883-8.829
			S1787.467,1613.602,1787.467,1617.969z"/>
		<path style="fill:#005187;" d="M1810.964,1595.705h4.177v33.704h-4.177V1595.705z"/>
		<path style="fill:#005187;" d="M1842.958,1617.731c0,8.497-5.887,12.2-11.44,12.2c-6.219,0-11.014-4.558-11.014-11.82
			c0-7.69,5.032-12.2,11.394-12.2C1838.495,1605.911,1842.958,1610.706,1842.958,1617.731z M1824.729,1617.969
			c0,5.032,2.896,8.829,6.978,8.829c3.987,0,6.979-3.75,6.979-8.924c0-3.893-1.946-8.829-6.884-8.829
			C1826.865,1609.045,1824.729,1613.602,1824.729,1617.969z"/>
		<path style="fill:#005187;" d="M1848.226,1613.602c0-2.706-0.047-5.032-0.189-7.168h3.655l0.143,4.51h0.189
			c1.044-3.086,3.561-5.032,6.361-5.032c0.475,0,0.807,0.048,1.187,0.143v3.94c-0.428-0.095-0.854-0.143-1.424-0.143
			c-2.943,0-5.032,2.231-5.602,5.364c-0.096,0.569-0.19,1.234-0.19,1.946v12.247h-4.13V1613.602z"/>
		<path style="fill:#005187;" d="M1865.6,1618.681c0.095,5.649,3.702,7.976,7.88,7.976c2.99,0,4.794-0.522,6.36-1.188l0.713,2.991
			c-1.472,0.664-3.988,1.424-7.644,1.424c-7.072,0-11.298-4.652-11.298-11.583s4.083-12.39,10.776-12.39
			c7.5,0,9.494,6.599,9.494,10.823c0,0.854-0.096,1.52-0.143,1.946H1865.6z M1877.847,1615.69c0.047-2.658-1.092-6.788-5.792-6.788
			c-4.225,0-6.076,3.893-6.408,6.788H1877.847z"/>
		<path style="fill:#005187;" d="M1897.118,1612.652c0-2.374-0.048-4.32-0.19-6.219h3.655l0.19,3.703h0.142
			c1.282-2.184,3.418-4.226,7.216-4.226c3.133,0,5.507,1.899,6.504,4.604h0.095c0.712-1.281,1.614-2.278,2.563-2.99
			c1.376-1.044,2.896-1.614,5.079-1.614c3.038,0,7.548,1.994,7.548,9.969v13.529h-4.083v-13.007c0-4.415-1.613-7.073-4.984-7.073
			c-2.373,0-4.225,1.757-4.937,3.798c-0.189,0.569-0.332,1.329-0.332,2.089v14.193h-4.083v-13.767c0-3.655-1.613-6.313-4.794-6.313
			c-2.611,0-4.51,2.089-5.175,4.178c-0.237,0.617-0.332,1.329-0.332,2.041v13.861h-4.082V1612.652z"/>
		<path style="fill:#005187;" d="M1949.429,1629.409l-0.332-2.896h-0.143c-1.282,1.804-3.75,3.418-7.025,3.418
			c-4.652,0-7.025-3.275-7.025-6.599c0-5.554,4.937-8.592,13.813-8.545v-0.475c0-1.898-0.522-5.316-5.222-5.316
			c-2.137,0-4.367,0.665-5.981,1.709l-0.949-2.753c1.898-1.234,4.652-2.042,7.548-2.042c7.025,0,8.734,4.795,8.734,9.399v8.592
			c0,1.994,0.095,3.94,0.38,5.507H1949.429z M1948.812,1617.684c-4.557-0.095-9.731,0.713-9.731,5.175
			c0,2.706,1.804,3.987,3.94,3.987c2.99,0,4.89-1.898,5.554-3.845c0.143-0.428,0.237-0.902,0.237-1.329V1617.684z"/>
		<path style="fill:#005187;" d="M1979.381,1606.434c-0.095,1.661-0.189,3.513-0.189,6.313v13.339c0,5.27-1.045,8.497-3.275,10.491
			c-2.231,2.089-5.459,2.753-8.354,2.753c-2.754,0-5.792-0.664-7.644-1.898l1.045-3.181c1.519,0.949,3.893,1.804,6.74,1.804
			c4.272,0,7.405-2.23,7.405-8.022v-2.563h-0.095c-1.281,2.137-3.75,3.846-7.311,3.846c-5.696,0-9.778-4.842-9.778-11.203
			c0-7.785,5.079-12.2,10.349-12.2c3.987,0,6.171,2.089,7.168,3.988h0.095l0.189-3.466H1979.381z M1975.062,1615.5
			c0-0.712-0.048-1.329-0.237-1.898c-0.76-2.421-2.801-4.415-5.839-4.415c-3.987,0-6.836,3.371-6.836,8.688
			c0,4.51,2.278,8.26,6.788,8.26c2.563,0,4.89-1.614,5.792-4.272c0.237-0.712,0.332-1.519,0.332-2.231V1615.5z"/>
		<path style="fill:#005187;" d="M1985.836,1612.652c0-2.374-0.047-4.32-0.189-6.219h3.702l0.237,3.798h0.096
			c1.139-2.184,3.797-4.32,7.595-4.32c3.181,0,8.117,1.899,8.117,9.779v13.719h-4.177v-13.244c0-3.703-1.377-6.788-5.317-6.788
			c-2.753,0-4.889,1.946-5.601,4.272c-0.19,0.521-0.285,1.234-0.285,1.946v13.813h-4.178V1612.652z"/>
		<path style="fill:#005187;" d="M2024.903,1629.409l-0.333-2.896h-0.143c-1.281,1.804-3.75,3.418-7.025,3.418
			c-4.651,0-7.025-3.275-7.025-6.599c0-5.554,4.937-8.592,13.813-8.545v-0.475c0-1.898-0.521-5.316-5.222-5.316
			c-2.136,0-4.367,0.665-5.98,1.709l-0.95-2.753c1.899-1.234,4.652-2.042,7.548-2.042c7.025,0,8.734,4.795,8.734,9.399v8.592
			c0,1.994,0.096,3.94,0.38,5.507H2024.903z M2024.286,1617.684c-4.558-0.095-9.731,0.713-9.731,5.175
			c0,2.706,1.804,3.987,3.939,3.987c2.991,0,4.89-1.898,5.555-3.845c0.142-0.428,0.237-0.902,0.237-1.329V1617.684z"/>
		<path style="fill:#005187;" d="M2057.846,1629.409l-0.333-2.896h-0.143c-1.281,1.804-3.75,3.418-7.025,3.418
			c-4.651,0-7.025-3.275-7.025-6.599c0-5.554,4.937-8.592,13.813-8.545v-0.475c0-1.898-0.521-5.316-5.222-5.316
			c-2.136,0-4.367,0.665-5.98,1.709l-0.95-2.753c1.899-1.234,4.652-2.042,7.548-2.042c7.025,0,8.734,4.795,8.734,9.399v8.592
			c0,1.994,0.096,3.94,0.38,5.507H2057.846z M2057.229,1617.684c-4.558-0.095-9.731,0.713-9.731,5.175
			c0,2.706,1.804,3.987,3.939,3.987c2.991,0,4.89-1.898,5.555-3.845c0.142-0.428,0.237-0.902,0.237-1.329V1617.684z"/>
		<path style="fill:#005187;" d="M2068.003,1595.705h4.177v33.704h-4.177V1595.705z"/>
		<path style="fill:#005187;" d="M2083.857,1599.978c0.048,1.424-0.997,2.563-2.658,2.563c-1.472,0-2.516-1.14-2.516-2.563
			c0-1.472,1.092-2.61,2.61-2.61C2082.86,1597.367,2083.857,1598.506,2083.857,1599.978z M2079.205,1629.409v-22.976h4.178v22.976
			H2079.205z"/>
		<path style="fill:#005187;" d="M2105.978,1625.849h-0.095c-1.234,2.279-3.798,4.083-7.501,4.083
			c-5.364,0-9.731-4.652-9.731-11.631c0-8.592,5.555-12.39,10.396-12.39c3.561,0,5.934,1.757,7.073,3.988h0.095l0.143-3.466h3.939
			c-0.095,1.946-0.143,3.94-0.143,6.313v26.062h-4.177V1625.849z M2105.978,1615.738c0-0.57-0.048-1.234-0.19-1.757
			c-0.617-2.563-2.848-4.747-5.98-4.747c-4.32,0-6.931,3.655-6.931,8.829c0,4.558,2.184,8.545,6.788,8.545
			c2.706,0,5.031-1.661,5.981-4.557c0.189-0.57,0.332-1.377,0.332-1.994V1615.738z"/>
		<path style="fill:#005187;" d="M2136.263,1623.144c0,2.373,0.047,4.462,0.189,6.266h-3.703l-0.237-3.75h-0.095
			c-1.092,1.852-3.513,4.272-7.595,4.272c-3.608,0-7.928-1.994-7.928-10.063v-13.435h4.178v12.722c0,4.367,1.329,7.311,5.126,7.311
			c2.801,0,4.747-1.946,5.507-3.798c0.237-0.616,0.38-1.376,0.38-2.136v-14.099h4.178V1623.144z"/>
		<path style="fill:#005187;" d="M2155.914,1629.409l-0.333-2.896h-0.143c-1.281,1.804-3.75,3.418-7.025,3.418
			c-4.651,0-7.025-3.275-7.025-6.599c0-5.554,4.937-8.592,13.813-8.545v-0.475c0-1.898-0.521-5.316-5.222-5.316
			c-2.136,0-4.367,0.665-5.98,1.709l-0.95-2.753c1.899-1.234,4.652-2.042,7.548-2.042c7.025,0,8.734,4.795,8.734,9.399v8.592
			c0,1.994,0.096,3.94,0.38,5.507H2155.914z M2155.297,1617.684c-4.558-0.095-9.731,0.713-9.731,5.175
			c0,2.706,1.804,3.987,3.939,3.987c2.991,0,4.89-1.898,5.555-3.845c0.142-0.428,0.237-0.902,0.237-1.329V1617.684z"/>
		<path style="fill:#005187;" d="M2165.074,1626.94c0-1.756,1.187-2.99,2.848-2.99c1.662,0,2.801,1.234,2.801,2.99
			c0,1.709-1.092,2.991-2.848,2.991C2166.214,1629.932,2165.074,1628.649,2165.074,1626.94z"/>
		<path style="fill:#005187;" d="M838.203,1654.377v18.94c0,7.168,3.18,10.206,7.453,10.206c4.747,0,7.785-3.133,7.785-10.206
			v-18.94h4.177v18.656c0,9.826-5.174,13.861-12.105,13.861c-6.551,0-11.488-3.75-11.488-13.672v-18.846H838.203z"/>
		<path style="fill:#005187;" d="M869.864,1656.798v6.599h5.981v3.181h-5.981v12.39c0,2.848,0.807,4.462,3.133,4.462
			c1.092,0,1.898-0.143,2.421-0.284l0.19,3.133c-0.807,0.332-2.089,0.569-3.703,0.569c-1.946,0-3.513-0.617-4.51-1.756
			c-1.187-1.234-1.614-3.276-1.614-5.981v-12.532h-3.56v-3.181h3.56v-5.507L869.864,1656.798z"/>
		<path style="fill:#005187;" d="M892.933,1675.644c0.095,5.649,3.703,7.976,7.88,7.976c2.991,0,4.794-0.522,6.361-1.188
			l0.712,2.991c-1.472,0.664-3.988,1.424-7.643,1.424c-7.073,0-11.298-4.652-11.298-11.583s4.083-12.39,10.776-12.39
			c7.5,0,9.494,6.599,9.494,10.823c0,0.854-0.095,1.52-0.143,1.946H892.933z M905.18,1672.653c0.047-2.658-1.092-6.788-5.792-6.788
			c-4.225,0-6.076,3.893-6.408,6.788H905.18z"/>
		<path style="fill:#005187;" d="M914.388,1669.615c0-2.374-0.047-4.32-0.19-6.219h3.703l0.237,3.798h0.095
			c1.139-2.184,3.797-4.32,7.595-4.32c3.18,0,8.117,1.899,8.117,9.779v13.719h-4.177v-13.244c0-3.703-1.376-6.788-5.317-6.788
			c-2.753,0-4.889,1.946-5.601,4.272c-0.19,0.521-0.285,1.234-0.285,1.946v13.813h-4.177V1669.615z"/>
		<path style="fill:#005187;" d="M945.385,1656.94c0.048,1.424-0.997,2.563-2.658,2.563c-1.472,0-2.516-1.14-2.516-2.563
			c0-1.472,1.092-2.61,2.611-2.61C944.388,1654.33,945.385,1655.469,945.385,1656.94z M940.733,1686.372v-22.976h4.177v22.976
			H940.733z"/>
		<path style="fill:#005187;" d="M951.84,1669.615c0-2.374-0.047-4.32-0.19-6.219h3.655l0.19,3.703h0.142
			c1.282-2.184,3.418-4.226,7.216-4.226c3.133,0,5.506,1.899,6.503,4.604h0.095c0.712-1.281,1.614-2.278,2.563-2.99
			c1.377-1.044,2.896-1.614,5.079-1.614c3.038,0,7.548,1.994,7.548,9.969v13.529h-4.083v-13.007c0-4.415-1.614-7.073-4.984-7.073
			c-2.374,0-4.225,1.757-4.937,3.798c-0.19,0.569-0.333,1.329-0.333,2.089v14.193h-4.083v-13.767c0-3.655-1.614-6.313-4.794-6.313
			c-2.611,0-4.51,2.089-5.174,4.178c-0.237,0.617-0.332,1.329-0.332,2.041v13.861h-4.083V1669.615z"/>
		<path style="fill:#005187;" d="M1014.214,1686.372l-0.333-2.896h-0.142c-1.282,1.804-3.75,3.418-7.025,3.418
			c-4.652,0-7.025-3.275-7.025-6.599c0-5.554,4.937-8.592,13.814-8.545v-0.475c0-1.898-0.522-5.316-5.222-5.316
			c-2.136,0-4.367,0.665-5.981,1.709l-0.95-2.753c1.899-1.234,4.652-2.042,7.548-2.042c7.025,0,8.734,4.795,8.734,9.399v8.592
			c0,1.994,0.095,3.94,0.38,5.507H1014.214z M1013.597,1674.646c-4.557-0.095-9.732,0.713-9.732,5.175
			c0,2.706,1.804,3.987,3.94,3.987c2.991,0,4.89-1.898,5.554-3.845c0.142-0.428,0.237-0.902,0.237-1.329V1674.646z"/>
		<path style="fill:#005187;" d="M1044.214,1652.668v27.771c0,2.041,0.048,4.367,0.19,5.934h-3.75l-0.19-3.987h-0.095
			c-1.282,2.563-4.083,4.51-7.833,4.51c-5.554,0-9.827-4.7-9.827-11.678c-0.047-7.643,4.7-12.343,10.301-12.343
			c3.513,0,5.886,1.662,6.931,3.513h0.095v-13.719H1044.214z M1040.037,1672.748c0-0.522-0.047-1.234-0.19-1.756
			c-0.617-2.659-2.896-4.843-6.029-4.843c-4.319,0-6.883,3.798-6.883,8.877c0,4.652,2.278,8.497,6.788,8.497
			c2.801,0,5.364-1.851,6.124-4.984c0.143-0.569,0.19-1.139,0.19-1.804V1672.748z"/>
		<path style="fill:#005187;" d="M1061.207,1669.615c0-2.374-0.047-4.32-0.19-6.219h3.655l0.19,3.703h0.142
			c1.282-2.184,3.418-4.226,7.216-4.226c3.133,0,5.506,1.899,6.503,4.604h0.095c0.712-1.281,1.614-2.278,2.563-2.99
			c1.376-1.044,2.896-1.614,5.079-1.614c3.038,0,7.548,1.994,7.548,9.969v13.529h-4.083v-13.007c0-4.415-1.614-7.073-4.984-7.073
			c-2.374,0-4.225,1.757-4.937,3.798c-0.19,0.569-0.333,1.329-0.333,2.089v14.193h-4.083v-13.767c0-3.655-1.614-6.313-4.794-6.313
			c-2.611,0-4.51,2.089-5.174,4.178c-0.237,0.617-0.332,1.329-0.332,2.041v13.861h-4.083V1669.615z"/>
		<path style="fill:#005187;" d="M1105.447,1656.94c0.048,1.424-0.997,2.563-2.658,2.563c-1.472,0-2.516-1.14-2.516-2.563
			c0-1.472,1.092-2.61,2.611-2.61C1104.451,1654.33,1105.447,1655.469,1105.447,1656.94z M1100.795,1686.372v-22.976h4.177v22.976
			H1100.795z"/>
		<path style="fill:#005187;" d="M1111.903,1669.615c0-2.374-0.047-4.32-0.19-6.219h3.703l0.237,3.798h0.095
			c1.139-2.184,3.797-4.32,7.595-4.32c3.18,0,8.117,1.899,8.117,9.779v13.719h-4.177v-13.244c0-3.703-1.376-6.788-5.317-6.788
			c-2.753,0-4.889,1.946-5.601,4.272c-0.19,0.521-0.285,1.234-0.285,1.946v13.813h-4.177V1669.615z"/>
		<path style="fill:#005187;" d="M1142.899,1656.94c0.048,1.424-0.997,2.563-2.658,2.563c-1.472,0-2.516-1.14-2.516-2.563
			c0-1.472,1.092-2.61,2.611-2.61C1141.903,1654.33,1142.899,1655.469,1142.899,1656.94z M1138.248,1686.372v-22.976h4.177v22.976
			H1138.248z"/>
		<path style="fill:#005187;" d="M1149.355,1669.615c0-2.374-0.047-4.32-0.19-6.219h3.655l0.19,3.703h0.142
			c1.282-2.184,3.418-4.226,7.216-4.226c3.133,0,5.506,1.899,6.503,4.604h0.095c0.712-1.281,1.614-2.278,2.563-2.99
			c1.376-1.044,2.896-1.614,5.079-1.614c3.038,0,7.548,1.994,7.548,9.969v13.529h-4.083v-13.007c0-4.415-1.614-7.073-4.984-7.073
			c-2.374,0-4.225,1.757-4.937,3.798c-0.19,0.569-0.333,1.329-0.333,2.089v14.193h-4.083v-13.767c0-3.655-1.614-6.313-4.794-6.313
			c-2.611,0-4.51,2.089-5.174,4.178c-0.237,0.617-0.332,1.329-0.332,2.041v13.861h-4.083V1669.615z"/>
		<path style="fill:#005187;" d="M1200.62,1663.396l4.51,12.912c0.76,2.089,1.377,3.987,1.852,5.886h0.142
			c0.522-1.898,1.187-3.797,1.946-5.886l4.462-12.912h4.367l-9.02,22.976h-3.987l-8.734-22.976H1200.62z"/>
		<path style="fill:#005187;" d="M1223.69,1675.644c0.095,5.649,3.703,7.976,7.88,7.976c2.991,0,4.794-0.522,6.361-1.188
			l0.712,2.991c-1.472,0.664-3.988,1.424-7.643,1.424c-7.073,0-11.298-4.652-11.298-11.583s4.083-12.39,10.776-12.39
			c7.5,0,9.494,6.599,9.494,10.823c0,0.854-0.095,1.52-0.143,1.946H1223.69z M1235.937,1672.653
			c0.047-2.658-1.092-6.788-5.792-6.788c-4.225,0-6.076,3.893-6.408,6.788H1235.937z"/>
		<path style="fill:#005187;" d="M1245.146,1669.615c0-2.374-0.047-4.32-0.19-6.219h3.703l0.237,3.798h0.095
			c1.139-2.184,3.797-4.32,7.595-4.32c3.18,0,8.117,1.899,8.117,9.779v13.719h-4.177v-13.244c0-3.703-1.377-6.788-5.317-6.788
			c-2.753,0-4.889,1.946-5.601,4.272c-0.19,0.521-0.285,1.234-0.285,1.946v13.813h-4.177V1669.615z"/>
		<path style="fill:#005187;" d="M1276.142,1656.94c0.048,1.424-0.997,2.563-2.658,2.563c-1.472,0-2.516-1.14-2.516-2.563
			c0-1.472,1.092-2.61,2.611-2.61C1275.146,1654.33,1276.142,1655.469,1276.142,1656.94z M1271.49,1686.372v-22.976h4.177v22.976
			H1271.49z"/>
		<path style="fill:#005187;" d="M1295.319,1686.372l-0.333-2.896h-0.143c-1.281,1.804-3.75,3.418-7.025,3.418
			c-4.652,0-7.025-3.275-7.025-6.599c0-5.554,4.937-8.592,13.813-8.545v-0.475c0-1.898-0.522-5.316-5.222-5.316
			c-2.136,0-4.367,0.665-5.981,1.709l-0.95-2.753c1.899-1.234,4.652-2.042,7.548-2.042c7.025,0,8.734,4.795,8.734,9.399v8.592
			c0,1.994,0.095,3.94,0.38,5.507H1295.319z M1294.702,1674.646c-4.557-0.095-9.731,0.713-9.731,5.175
			c0,2.706,1.804,3.987,3.94,3.987c2.991,0,4.89-1.898,5.554-3.845c0.142-0.428,0.237-0.902,0.237-1.329V1674.646z"/>
		<path style="fill:#005187;" d="M1305.477,1669.615c0-2.374-0.047-4.32-0.19-6.219h3.655l0.19,3.703h0.142
			c1.282-2.184,3.418-4.226,7.216-4.226c3.133,0,5.506,1.899,6.503,4.604h0.095c0.712-1.281,1.614-2.278,2.563-2.99
			c1.376-1.044,2.896-1.614,5.079-1.614c3.038,0,7.548,1.994,7.548,9.969v13.529h-4.083v-13.007c0-4.415-1.614-7.073-4.984-7.073
			c-2.374,0-4.225,1.757-4.937,3.798c-0.19,0.569-0.333,1.329-0.333,2.089v14.193h-4.083v-13.767c0-3.655-1.614-6.313-4.794-6.313
			c-2.611,0-4.51,2.089-5.174,4.178c-0.237,0.617-0.332,1.329-0.332,2.041v13.861h-4.083V1669.615z"/>
		<path style="fill:#005187;" d="M1342.36,1692.211c1.044-2.801,2.326-7.88,2.849-11.346l4.652-0.475
			c-1.092,4.035-3.181,9.305-4.51,11.535L1342.36,1692.211z"/>
		<path style="fill:#005187;" d="M1380.619,1682.812h-0.095c-1.234,2.279-3.798,4.083-7.5,4.083c-5.364,0-9.731-4.652-9.731-11.631
			c0-8.592,5.554-12.39,10.396-12.39c3.561,0,5.934,1.757,7.073,3.988h0.095l0.143-3.466h3.94c-0.095,1.946-0.143,3.94-0.143,6.313
			v26.062h-4.177V1682.812z M1380.619,1672.701c0-0.57-0.047-1.234-0.19-1.757c-0.617-2.563-2.848-4.747-5.981-4.747
			c-4.32,0-6.931,3.655-6.931,8.829c0,4.558,2.184,8.545,6.788,8.545c2.706,0,5.032-1.661,5.981-4.557
			c0.19-0.57,0.332-1.377,0.332-1.994V1672.701z"/>
		<path style="fill:#005187;" d="M1410.904,1680.106c0,2.373,0.047,4.462,0.189,6.266h-3.703l-0.237-3.75h-0.095
			c-1.092,1.852-3.513,4.272-7.595,4.272c-3.608,0-7.928-1.994-7.928-10.063v-13.435h4.178v12.722c0,4.367,1.329,7.311,5.126,7.311
			c2.801,0,4.747-1.946,5.507-3.798c0.237-0.616,0.379-1.376,0.379-2.136v-14.099h4.178V1680.106z"/>
		<path style="fill:#005187;" d="M1422.485,1656.94c0.048,1.424-0.997,2.563-2.658,2.563c-1.472,0-2.516-1.14-2.516-2.563
			c0-1.472,1.092-2.61,2.611-2.61C1421.488,1654.33,1422.485,1655.469,1422.485,1656.94z M1417.833,1686.372v-22.976h4.177v22.976
			H1417.833z"/>
		<path style="fill:#005187;" d="M1428.371,1682.1c1.234,0.808,3.418,1.661,5.507,1.661c3.038,0,4.462-1.519,4.462-3.417
			c0-1.994-1.187-3.086-4.272-4.226c-4.13-1.472-6.076-3.75-6.076-6.503c0-3.703,2.99-6.741,7.927-6.741
			c2.326,0,4.367,0.665,5.649,1.425l-1.044,3.038c-0.902-0.57-2.563-1.329-4.699-1.329c-2.469,0-3.845,1.424-3.845,3.133
			c0,1.898,1.376,2.753,4.367,3.893c3.987,1.519,6.029,3.513,6.029,6.931c0,4.035-3.133,6.883-8.592,6.883
			c-2.516,0-4.842-0.617-6.456-1.566L1428.371,1682.1z"/>
		<path style="fill:#005187;" d="M1457.801,1669.615c0-2.374-0.047-4.32-0.19-6.219h3.703l0.237,3.798h0.095
			c1.139-2.184,3.797-4.32,7.595-4.32c3.18,0,8.117,1.899,8.117,9.779v13.719h-4.177v-13.244c0-3.703-1.377-6.788-5.317-6.788
			c-2.753,0-4.889,1.946-5.601,4.272c-0.19,0.521-0.285,1.234-0.285,1.946v13.813h-4.177V1669.615z"/>
		<path style="fill:#005187;" d="M1504.938,1674.694c0,8.497-5.886,12.2-11.44,12.2c-6.219,0-11.013-4.558-11.013-11.82
			c0-7.69,5.032-12.2,11.393-12.2C1500.475,1662.874,1504.938,1667.669,1504.938,1674.694z M1486.709,1674.932
			c0,5.032,2.896,8.829,6.978,8.829c3.987,0,6.978-3.75,6.978-8.924c0-3.893-1.946-8.829-6.883-8.829
			C1488.845,1666.008,1486.709,1670.564,1486.709,1674.932z"/>
		<path style="fill:#005187;" d="M1509.636,1682.1c1.234,0.808,3.418,1.661,5.507,1.661c3.038,0,4.462-1.519,4.462-3.417
			c0-1.994-1.187-3.086-4.272-4.226c-4.13-1.472-6.076-3.75-6.076-6.503c0-3.703,2.99-6.741,7.928-6.741
			c2.326,0,4.367,0.665,5.648,1.425l-1.044,3.038c-0.902-0.57-2.563-1.329-4.699-1.329c-2.469,0-3.846,1.424-3.846,3.133
			c0,1.898,1.377,2.753,4.367,3.893c3.987,1.519,6.029,3.513,6.029,6.931c0,4.035-3.134,6.883-8.593,6.883
			c-2.516,0-4.842-0.617-6.455-1.566L1509.636,1682.1z"/>
		<path style="fill:#005187;" d="M1534.034,1656.798v6.599h5.981v3.181h-5.981v12.39c0,2.848,0.808,4.462,3.134,4.462
			c1.092,0,1.898-0.143,2.421-0.284l0.189,3.133c-0.807,0.332-2.089,0.569-3.702,0.569c-1.946,0-3.514-0.617-4.51-1.756
			c-1.188-1.234-1.614-3.276-1.614-5.981v-12.532h-3.561v-3.181h3.561v-5.507L1534.034,1656.798z"/>
		<path style="fill:#005187;" d="M1544.715,1670.564c0-2.706-0.048-5.032-0.19-7.168h3.655l0.143,4.51h0.189
			c1.045-3.086,3.561-5.032,6.361-5.032c0.475,0,0.807,0.048,1.187,0.143v3.94c-0.427-0.095-0.854-0.143-1.424-0.143
			c-2.943,0-5.032,2.231-5.602,5.364c-0.095,0.569-0.189,1.234-0.189,1.946v12.247h-4.13V1670.564z"/>
		<path style="fill:#005187;" d="M1579.462,1680.106c0,2.373,0.048,4.462,0.189,6.266h-3.702l-0.237-3.75h-0.095
			c-1.092,1.852-3.513,4.272-7.596,4.272c-3.607,0-7.928-1.994-7.928-10.063v-13.435h4.178v12.722c0,4.367,1.329,7.311,5.127,7.311
			c2.801,0,4.747-1.946,5.507-3.798c0.237-0.616,0.379-1.376,0.379-2.136v-14.099h4.178V1680.106z"/>
		<path style="fill:#005187;" d="M1606.233,1652.668v27.771c0,2.041,0.048,4.367,0.19,5.934h-3.75l-0.19-3.987h-0.095
			c-1.281,2.563-4.082,4.51-7.832,4.51c-5.555,0-9.827-4.7-9.827-11.678c-0.047-7.643,4.7-12.343,10.302-12.343
			c3.513,0,5.886,1.662,6.931,3.513h0.095v-13.719H1606.233z M1602.057,1672.748c0-0.522-0.048-1.234-0.19-1.756
			c-0.617-2.659-2.896-4.843-6.028-4.843c-4.319,0-6.883,3.798-6.883,8.877c0,4.652,2.278,8.497,6.788,8.497
			c2.801,0,5.364-1.851,6.123-4.984c0.143-0.569,0.19-1.139,0.19-1.804V1672.748z"/>
		<path style="fill:#005187;" d="M1625.553,1675.644c0.095,5.649,3.702,7.976,7.88,7.976c2.99,0,4.794-0.522,6.36-1.188l0.713,2.991
			c-1.472,0.664-3.988,1.424-7.644,1.424c-7.072,0-11.298-4.652-11.298-11.583s4.083-12.39,10.776-12.39
			c7.5,0,9.494,6.599,9.494,10.823c0,0.854-0.096,1.52-0.143,1.946H1625.553z M1637.8,1672.653c0.047-2.658-1.092-6.788-5.792-6.788
			c-4.225,0-6.076,3.893-6.408,6.788H1637.8z"/>
		<path style="fill:#005187;" d="M1648.813,1663.396l3.275,4.937c0.854,1.282,1.566,2.469,2.326,3.751h0.142
			c0.76-1.377,1.52-2.563,2.279-3.798l3.228-4.89h4.51l-7.833,11.108l8.07,11.867h-4.747l-3.37-5.174
			c-0.902-1.329-1.661-2.611-2.469-3.988h-0.095c-0.76,1.377-1.566,2.611-2.421,3.988l-3.323,5.174h-4.604l8.165-11.726
			l-7.785-11.25H1648.813z"/>
		<path style="fill:#005187;" d="M1670.458,1675.644c0.095,5.649,3.702,7.976,7.88,7.976c2.99,0,4.794-0.522,6.36-1.188l0.713,2.991
			c-1.472,0.664-3.988,1.424-7.644,1.424c-7.072,0-11.298-4.652-11.298-11.583s4.083-12.39,10.776-12.39
			c7.5,0,9.494,6.599,9.494,10.823c0,0.854-0.096,1.52-0.143,1.946H1670.458z M1682.705,1672.653
			c0.047-2.658-1.092-6.788-5.792-6.788c-4.225,0-6.076,3.893-6.408,6.788H1682.705z"/>
		<path style="fill:#005187;" d="M1691.913,1670.564c0-2.706-0.047-5.032-0.189-7.168h3.655l0.143,4.51h0.189
			c1.044-3.086,3.561-5.032,6.361-5.032c0.475,0,0.807,0.048,1.187,0.143v3.94c-0.428-0.095-0.854-0.143-1.424-0.143
			c-2.943,0-5.032,2.231-5.602,5.364c-0.096,0.569-0.19,1.234-0.19,1.946v12.247h-4.13V1670.564z"/>
		<path style="fill:#005187;" d="M1723.338,1685.518c-1.092,0.569-3.513,1.329-6.599,1.329c-6.931,0-11.44-4.699-11.44-11.725
			c0-7.073,4.843-12.2,12.343-12.2c2.469,0,4.652,0.617,5.791,1.187l-0.949,3.229c-0.997-0.57-2.563-1.092-4.842-1.092
			c-5.27,0-8.117,3.893-8.117,8.687c0,5.316,3.418,8.592,7.975,8.592c2.373,0,3.94-0.616,5.127-1.139L1723.338,1685.518z"/>
		<path style="fill:#005187;" d="M1732.879,1656.94c0.048,1.424-0.997,2.563-2.658,2.563c-1.472,0-2.516-1.14-2.516-2.563
			c0-1.472,1.092-2.61,2.61-2.61C1731.882,1654.33,1732.879,1655.469,1732.879,1656.94z M1728.227,1686.372v-22.976h4.178v22.976
			H1728.227z"/>
		<path style="fill:#005187;" d="M1744.366,1656.798v6.599h5.981v3.181h-5.981v12.39c0,2.848,0.807,4.462,3.133,4.462
			c1.092,0,1.898-0.143,2.421-0.284l0.19,3.133c-0.808,0.332-2.089,0.569-3.703,0.569c-1.946,0-3.513-0.617-4.51-1.756
			c-1.187-1.234-1.614-3.276-1.614-5.981v-12.532h-3.56v-3.181h3.56v-5.507L1744.366,1656.798z"/>
		<path style="fill:#005187;" d="M1767.768,1686.372l-0.332-2.896h-0.143c-1.282,1.804-3.75,3.418-7.025,3.418
			c-4.652,0-7.025-3.275-7.025-6.599c0-5.554,4.937-8.592,13.813-8.545v-0.475c0-1.898-0.522-5.316-5.222-5.316
			c-2.137,0-4.367,0.665-5.981,1.709l-0.949-2.753c1.898-1.234,4.652-2.042,7.548-2.042c7.025,0,8.734,4.795,8.734,9.399v8.592
			c0,1.994,0.095,3.94,0.38,5.507H1767.768z M1767.15,1674.646c-4.557-0.095-9.731,0.713-9.731,5.175
			c0,2.706,1.804,3.987,3.94,3.987c2.99,0,4.89-1.898,5.554-3.845c0.143-0.428,0.237-0.902,0.237-1.329V1674.646z"/>
		<path style="fill:#005187;" d="M1782.768,1656.798v6.599h5.981v3.181h-5.981v12.39c0,2.848,0.807,4.462,3.133,4.462
			c1.092,0,1.898-0.143,2.421-0.284l0.19,3.133c-0.808,0.332-2.089,0.569-3.703,0.569c-1.946,0-3.513-0.617-4.51-1.756
			c-1.187-1.234-1.614-3.276-1.614-5.981v-12.532h-3.56v-3.181h3.56v-5.507L1782.768,1656.798z"/>
		<path style="fill:#005187;" d="M1798.1,1656.94c0.048,1.424-0.997,2.563-2.658,2.563c-1.472,0-2.516-1.14-2.516-2.563
			c0-1.472,1.092-2.61,2.61-2.61C1797.103,1654.33,1798.1,1655.469,1798.1,1656.94z M1793.447,1686.372v-22.976h4.178v22.976
			H1793.447z"/>
		<path style="fill:#005187;" d="M1825.347,1674.694c0,8.497-5.886,12.2-11.44,12.2c-6.219,0-11.013-4.558-11.013-11.82
			c0-7.69,5.031-12.2,11.393-12.2C1820.885,1662.874,1825.347,1667.669,1825.347,1674.694z M1807.118,1674.932
			c0,5.032,2.896,8.829,6.979,8.829c3.987,0,6.978-3.75,6.978-8.924c0-3.893-1.946-8.829-6.883-8.829
			S1807.118,1670.564,1807.118,1674.932z"/>
		<path style="fill:#005187;" d="M1830.615,1669.615c0-2.374-0.048-4.32-0.19-6.219h3.703l0.237,3.798h0.095
			c1.14-2.184,3.798-4.32,7.596-4.32c3.18,0,8.117,1.899,8.117,9.779v13.719h-4.178v-13.244c0-3.703-1.377-6.788-5.316-6.788
			c-2.753,0-4.89,1.946-5.602,4.272c-0.189,0.521-0.285,1.234-0.285,1.946v13.813h-4.177V1669.615z"/>
		<path style="fill:#005187;" d="M1886.248,1680.106c0,2.373,0.048,4.462,0.189,6.266h-3.702l-0.237-3.75h-0.095
			c-1.092,1.852-3.513,4.272-7.596,4.272c-3.607,0-7.928-1.994-7.928-10.063v-13.435h4.178v12.722c0,4.367,1.329,7.311,5.127,7.311
			c2.801,0,4.747-1.946,5.507-3.798c0.237-0.616,0.379-1.376,0.379-2.136v-14.099h4.178V1680.106z"/>
		<path style="fill:#005187;" d="M1893.178,1652.668h4.177v33.704h-4.177V1652.668z"/>
		<path style="fill:#005187;" d="M1904.38,1652.668h4.177v33.704h-4.177V1652.668z"/>
		<path style="fill:#005187;" d="M1928.304,1686.372l-0.332-2.896h-0.143c-1.282,1.804-3.75,3.418-7.025,3.418
			c-4.652,0-7.025-3.275-7.025-6.599c0-5.554,4.937-8.592,13.813-8.545v-0.475c0-1.898-0.522-5.316-5.222-5.316
			c-2.137,0-4.367,0.665-5.981,1.709l-0.949-2.753c1.898-1.234,4.652-2.042,7.548-2.042c7.025,0,8.734,4.795,8.734,9.399v8.592
			c0,1.994,0.095,3.94,0.38,5.507H1928.304z M1927.687,1674.646c-4.557-0.095-9.731,0.713-9.731,5.175
			c0,2.706,1.804,3.987,3.94,3.987c2.99,0,4.89-1.898,5.554-3.845c0.143-0.428,0.237-0.902,0.237-1.329V1674.646z"/>
		<path style="fill:#005187;" d="M1938.462,1669.615c0-2.374-0.048-4.32-0.19-6.219h3.655l0.19,3.703h0.142
			c1.282-2.184,3.418-4.226,7.216-4.226c3.133,0,5.507,1.899,6.504,4.604h0.095c0.712-1.281,1.614-2.278,2.563-2.99
			c1.376-1.044,2.896-1.614,5.079-1.614c3.038,0,7.548,1.994,7.548,9.969v13.529h-4.083v-13.007c0-4.415-1.613-7.073-4.984-7.073
			c-2.373,0-4.225,1.757-4.937,3.798c-0.189,0.569-0.332,1.329-0.332,2.089v14.193h-4.083v-13.767c0-3.655-1.613-6.313-4.794-6.313
			c-2.611,0-4.51,2.089-5.175,4.178c-0.237,0.617-0.332,1.329-0.332,2.041v13.861h-4.082V1669.615z"/>
		<path style="fill:#005187;" d="M1994.428,1685.518c-1.092,0.569-3.513,1.329-6.599,1.329c-6.931,0-11.44-4.699-11.44-11.725
			c0-7.073,4.843-12.2,12.343-12.2c2.469,0,4.652,0.617,5.791,1.187l-0.949,3.229c-0.997-0.57-2.563-1.092-4.842-1.092
			c-5.27,0-8.117,3.893-8.117,8.687c0,5.316,3.418,8.592,7.975,8.592c2.373,0,3.94-0.616,5.127-1.139L1994.428,1685.518z"/>
		<path style="fill:#005187;" d="M2019.824,1674.694c0,8.497-5.887,12.2-11.44,12.2c-6.219,0-11.014-4.558-11.014-11.82
			c0-7.69,5.032-12.2,11.394-12.2C2015.361,1662.874,2019.824,1667.669,2019.824,1674.694z M2001.596,1674.932
			c0,5.032,2.896,8.829,6.978,8.829c3.987,0,6.979-3.75,6.979-8.924c0-3.893-1.946-8.829-6.884-8.829
			C2003.731,1666.008,2001.596,1670.564,2001.596,1674.932z"/>
		<path style="fill:#005187;" d="M2035.154,1652.668h4.178v33.704h-4.178V1652.668z"/>
		<path style="fill:#005187;" d="M2059.079,1686.372l-0.332-2.896h-0.143c-1.282,1.804-3.75,3.418-7.025,3.418
			c-4.652,0-7.025-3.275-7.025-6.599c0-5.554,4.937-8.592,13.813-8.545v-0.475c0-1.898-0.522-5.316-5.222-5.316
			c-2.137,0-4.367,0.665-5.981,1.709l-0.949-2.753c1.898-1.234,4.652-2.042,7.548-2.042c7.025,0,8.734,4.795,8.734,9.399v8.592
			c0,1.994,0.095,3.94,0.38,5.507H2059.079z M2058.462,1674.646c-4.557-0.095-9.731,0.713-9.731,5.175
			c0,2.706,1.804,3.987,3.94,3.987c2.99,0,4.89-1.898,5.554-3.845c0.143-0.428,0.237-0.902,0.237-1.329V1674.646z"/>
		<path style="fill:#005187;" d="M2069.047,1686.372c0.095-1.566,0.189-3.893,0.189-5.934v-27.771h4.13v14.432h0.095
			c1.472-2.563,4.13-4.226,7.833-4.226c5.696,0,9.731,4.747,9.684,11.726c0,8.212-5.174,12.295-10.301,12.295
			c-3.323,0-5.981-1.282-7.69-4.32h-0.142l-0.19,3.798H2069.047z M2073.366,1677.163c0,0.521,0.095,1.044,0.19,1.519
			c0.807,2.896,3.228,4.89,6.266,4.89c4.367,0,6.979-3.561,6.979-8.829c0-4.604-2.374-8.545-6.836-8.545
			c-2.849,0-5.507,1.946-6.361,5.127c-0.095,0.475-0.237,1.044-0.237,1.709V1677.163z"/>
		<path style="fill:#005187;" d="M2117.037,1674.694c0,8.497-5.886,12.2-11.44,12.2c-6.219,0-11.013-4.558-11.013-11.82
			c0-7.69,5.031-12.2,11.393-12.2C2112.575,1662.874,2117.037,1667.669,2117.037,1674.694z M2098.809,1674.932
			c0,5.032,2.896,8.829,6.979,8.829c3.987,0,6.978-3.75,6.978-8.924c0-3.893-1.946-8.829-6.883-8.829
			S2098.809,1670.564,2098.809,1674.932z"/>
		<path style="fill:#005187;" d="M2122.306,1670.564c0-2.706-0.048-5.032-0.19-7.168h3.655l0.143,4.51h0.189
			c1.045-3.086,3.561-5.032,6.361-5.032c0.475,0,0.807,0.048,1.187,0.143v3.94c-0.427-0.095-0.854-0.143-1.424-0.143
			c-2.943,0-5.032,2.231-5.602,5.364c-0.095,0.569-0.189,1.234-0.189,1.946v12.247h-4.13V1670.564z"/>
		<path style="fill:#005187;" d="M2142.669,1656.94c0.048,1.424-0.996,2.563-2.658,2.563c-1.472,0-2.516-1.14-2.516-2.563
			c0-1.472,1.092-2.61,2.611-2.61C2141.673,1654.33,2142.669,1655.469,2142.669,1656.94z M2138.018,1686.372v-22.976h4.177v22.976
			H2138.018z"/>
		<path style="fill:#005187;" d="M2148.555,1682.1c1.234,0.808,3.418,1.661,5.507,1.661c3.038,0,4.462-1.519,4.462-3.417
			c0-1.994-1.187-3.086-4.271-4.226c-4.13-1.472-6.076-3.75-6.076-6.503c0-3.703,2.99-6.741,7.927-6.741
			c2.326,0,4.367,0.665,5.649,1.425l-1.045,3.038c-0.901-0.57-2.563-1.329-4.699-1.329c-2.469,0-3.845,1.424-3.845,3.133
			c0,1.898,1.376,2.753,4.367,3.893c3.987,1.519,6.028,3.513,6.028,6.931c0,4.035-3.133,6.883-8.592,6.883
			c-2.516,0-4.842-0.617-6.456-1.566L2148.555,1682.1z"/>
		<path style="fill:#005187;" d="M1090.875,1726.577c0-2.374-0.047-4.32-0.19-6.219h3.703l0.237,3.798h0.095
			c1.139-2.184,3.797-4.32,7.595-4.32c3.18,0,8.117,1.899,8.117,9.779v13.719h-4.177v-13.244c0-3.703-1.376-6.788-5.317-6.788
			c-2.753,0-4.889,1.946-5.601,4.272c-0.19,0.521-0.285,1.234-0.285,1.946v13.813h-4.177V1726.577z"/>
		<path style="fill:#005187;" d="M1121.871,1713.902c0.048,1.424-0.997,2.563-2.658,2.563c-1.472,0-2.516-1.14-2.516-2.563
			c0-1.472,1.092-2.61,2.611-2.61C1120.875,1711.292,1121.871,1712.431,1121.871,1713.902z M1117.219,1743.334v-22.976h4.177v22.976
			H1117.219z"/>
		<path style="fill:#005187;" d="M1127.757,1739.062c1.234,0.808,3.418,1.661,5.507,1.661c3.038,0,4.462-1.519,4.462-3.417
			c0-1.994-1.187-3.086-4.272-4.226c-4.13-1.472-6.076-3.75-6.076-6.503c0-3.703,2.99-6.741,7.927-6.741
			c2.326,0,4.367,0.665,5.649,1.425l-1.044,3.038c-0.902-0.57-2.563-1.329-4.699-1.329c-2.469,0-3.845,1.424-3.845,3.133
			c0,1.898,1.376,2.753,4.367,3.893c3.987,1.519,6.029,3.513,6.029,6.931c0,4.035-3.133,6.883-8.592,6.883
			c-2.516,0-4.842-0.617-6.456-1.566L1127.757,1739.062z"/>
		<path style="fill:#005187;" d="M1151.776,1713.902c0.048,1.424-0.997,2.563-2.658,2.563c-1.472,0-2.516-1.14-2.516-2.563
			c0-1.472,1.092-2.61,2.611-2.61C1150.779,1711.292,1151.776,1712.431,1151.776,1713.902z M1147.124,1743.334v-22.976h4.177v22.976
			H1147.124z"/>
		<path style="fill:#005187;" d="M1187.52,1737.068c0,2.373,0.047,4.462,0.189,6.266h-3.703l-0.237-3.75h-0.095
			c-1.092,1.852-3.513,4.272-7.595,4.272c-3.608,0-7.928-1.994-7.928-10.063v-13.435h4.178v12.722c0,4.367,1.329,7.311,5.126,7.311
			c2.801,0,4.747-1.946,5.507-3.798c0.237-0.616,0.379-1.376,0.379-2.136v-14.099h4.178V1737.068z"/>
		<path style="fill:#005187;" d="M1199.481,1713.76v6.599h5.981v3.181h-5.981v12.39c0,2.849,0.807,4.462,3.133,4.462
			c1.092,0,1.898-0.143,2.421-0.284l0.19,3.133c-0.807,0.332-2.089,0.569-3.703,0.569c-1.946,0-3.513-0.617-4.51-1.756
			c-1.187-1.234-1.614-3.275-1.614-5.981v-12.532h-3.56v-3.181h3.56v-5.507L1199.481,1713.76z"/>
		<path style="fill:#005187;" d="M1232.946,1743.334l-0.333-2.896h-0.143c-1.281,1.804-3.75,3.418-7.025,3.418
			c-4.652,0-7.025-3.275-7.025-6.599c0-5.554,4.937-8.592,13.813-8.545v-0.475c0-1.898-0.522-5.316-5.222-5.316
			c-2.136,0-4.367,0.664-5.981,1.709l-0.95-2.753c1.899-1.234,4.652-2.042,7.548-2.042c7.025,0,8.734,4.795,8.734,9.399v8.592
			c0,1.994,0.095,3.94,0.38,5.507H1232.946z M1232.329,1731.608c-4.557-0.095-9.731,0.713-9.731,5.175
			c0,2.706,1.804,3.987,3.94,3.987c2.991,0,4.89-1.898,5.554-3.845c0.142-0.428,0.237-0.902,0.237-1.329V1731.608z"/>
		<path style="fill:#005187;" d="M1243.104,1709.63h4.177v33.704h-4.177V1709.63z"/>
		<path style="fill:#005187;" d="M1258.958,1713.902c0.048,1.424-0.997,2.563-2.658,2.563c-1.472,0-2.516-1.14-2.516-2.563
			c0-1.472,1.092-2.61,2.611-2.61C1257.961,1711.292,1258.958,1712.431,1258.958,1713.902z M1254.306,1743.334v-22.976h4.177v22.976
			H1254.306z"/>
		<path style="fill:#005187;" d="M1281.078,1739.773h-0.095c-1.234,2.279-3.798,4.083-7.5,4.083c-5.364,0-9.731-4.652-9.731-11.631
			c0-8.592,5.554-12.39,10.396-12.39c3.561,0,5.934,1.757,7.073,3.988h0.095l0.143-3.466h3.94c-0.095,1.946-0.143,3.94-0.143,6.313
			v26.062h-4.177V1739.773z M1281.078,1729.662c0-0.569-0.047-1.233-0.19-1.756c-0.617-2.563-2.848-4.747-5.981-4.747
			c-4.32,0-6.931,3.655-6.931,8.829c0,4.558,2.184,8.545,6.788,8.545c2.706,0,5.032-1.661,5.981-4.557
			c0.19-0.57,0.332-1.377,0.332-1.994V1729.662z"/>
		<path style="fill:#005187;" d="M1311.363,1737.068c0,2.373,0.047,4.462,0.189,6.266h-3.703l-0.237-3.75h-0.095
			c-1.092,1.852-3.513,4.272-7.595,4.272c-3.608,0-7.928-1.994-7.928-10.063v-13.435h4.178v12.722c0,4.367,1.329,7.311,5.126,7.311
			c2.801,0,4.747-1.946,5.507-3.798c0.237-0.616,0.379-1.376,0.379-2.136v-14.099h4.178V1737.068z"/>
		<path style="fill:#005187;" d="M1322.944,1713.902c0.048,1.424-0.997,2.563-2.658,2.563c-1.472,0-2.516-1.14-2.516-2.563
			c0-1.472,1.092-2.61,2.611-2.61C1321.948,1711.292,1322.944,1712.431,1322.944,1713.902z M1318.292,1743.334v-22.976h4.177v22.976
			H1318.292z"/>
		<path style="fill:#005187;" d="M1329.4,1727.858c0-2.942-0.095-5.316-0.19-7.5h3.75l0.19,3.94h0.095
			c1.709-2.801,4.415-4.463,8.165-4.463c5.554,0,9.731,4.7,9.731,11.678c0,8.26-5.032,12.343-10.443,12.343
			c-3.038,0-5.696-1.329-7.073-3.608h-0.095v12.485h-4.13V1727.858z M1333.53,1733.982c0,0.617,0.095,1.187,0.19,1.709
			c0.759,2.896,3.275,4.89,6.266,4.89c4.415,0,6.978-3.608,6.978-8.877c0-4.604-2.421-8.545-6.836-8.545
			c-2.848,0-5.506,2.041-6.313,5.174c-0.142,0.522-0.285,1.14-0.285,1.709V1733.982z"/>
		<path style="fill:#005187;" d="M1368.798,1732.605c0.095,5.649,3.703,7.976,7.88,7.976c2.991,0,4.794-0.522,6.361-1.188
			l0.712,2.991c-1.472,0.664-3.988,1.424-7.643,1.424c-7.073,0-11.298-4.652-11.298-11.583s4.083-12.39,10.776-12.39
			c7.5,0,9.494,6.599,9.494,10.823c0,0.854-0.095,1.52-0.143,1.946H1368.798z M1381.045,1729.615
			c0.047-2.658-1.092-6.788-5.792-6.788c-4.225,0-6.076,3.893-6.408,6.788H1381.045z"/>
		<path style="fill:#005187;" d="M1392.057,1720.358l3.275,4.937c0.854,1.282,1.566,2.469,2.326,3.751h0.142
			c0.76-1.377,1.519-2.563,2.279-3.798l3.228-4.89h4.51l-7.833,11.108l8.07,11.867h-4.747l-3.371-5.174
			c-0.902-1.329-1.661-2.611-2.468-3.988h-0.095c-0.759,1.377-1.566,2.611-2.421,3.988l-3.323,5.174h-4.604l8.165-11.726
			l-7.785-11.25H1392.057z"/>
		<path style="fill:#005187;" d="M1424.478,1732.605c0.095,5.649,3.703,7.976,7.88,7.976c2.991,0,4.794-0.522,6.361-1.188
			l0.712,2.991c-1.472,0.664-3.988,1.424-7.643,1.424c-7.073,0-11.298-4.652-11.298-11.583s4.083-12.39,10.776-12.39
			c7.5,0,9.494,6.599,9.494,10.823c0,0.854-0.095,1.52-0.143,1.946H1424.478z M1436.725,1729.615
			c0.047-2.658-1.092-6.788-5.792-6.788c-4.225,0-6.076,3.893-6.408,6.788H1436.725z"/>
		<path style="fill:#005187;" d="M1458.655,1743.334l-0.333-2.896h-0.143c-1.281,1.804-3.75,3.418-7.025,3.418
			c-4.652,0-7.025-3.275-7.025-6.599c0-5.554,4.937-8.592,13.813-8.545v-0.475c0-1.898-0.522-5.316-5.222-5.316
			c-2.136,0-4.367,0.664-5.981,1.709l-0.95-2.753c1.899-1.234,4.652-2.042,7.548-2.042c7.025,0,8.734,4.795,8.734,9.399v8.592
			c0,1.994,0.095,3.94,0.38,5.507H1458.655z M1458.038,1731.608c-4.557-0.095-9.731,0.713-9.731,5.175
			c0,2.706,1.804,3.987,3.94,3.987c2.991,0,4.89-1.898,5.554-3.845c0.142-0.428,0.237-0.902,0.237-1.329V1731.608z"/>
		<path style="fill:#005187;" d="M1495.252,1742.479c-1.092,0.569-3.513,1.329-6.598,1.329c-6.931,0-11.44-4.699-11.44-11.725
			c0-7.073,4.842-12.2,12.342-12.2c2.469,0,4.652,0.617,5.792,1.187l-0.95,3.229c-0.997-0.57-2.563-1.092-4.842-1.092
			c-5.269,0-8.117,3.893-8.117,8.687c0,5.316,3.418,8.592,7.975,8.592c2.373,0,3.94-0.616,5.126-1.139L1495.252,1742.479z"/>
		<path style="fill:#005187;" d="M1520.648,1731.656c0,8.497-5.886,12.2-11.44,12.2c-6.219,0-11.013-4.558-11.013-11.82
			c0-7.69,5.031-12.2,11.393-12.2C1516.187,1719.836,1520.648,1724.631,1520.648,1731.656z M1502.42,1731.894
			c0,5.032,2.896,8.829,6.979,8.829c3.987,0,6.978-3.75,6.978-8.924c0-3.893-1.946-8.829-6.883-8.829
			S1502.42,1727.526,1502.42,1731.894z"/>
		<path style="fill:#005187;" d="M1525.917,1726.577c0-2.374-0.048-4.32-0.19-6.219h3.655l0.19,3.703h0.142
			c1.282-2.184,3.418-4.226,7.216-4.226c3.133,0,5.507,1.899,6.504,4.604h0.095c0.712-1.281,1.614-2.278,2.563-2.99
			c1.376-1.044,2.896-1.614,5.079-1.614c3.038,0,7.548,1.994,7.548,9.969v13.529h-4.083v-13.007c0-4.415-1.613-7.073-4.984-7.073
			c-2.373,0-4.225,1.757-4.937,3.798c-0.189,0.569-0.332,1.329-0.332,2.089v14.193h-4.083v-13.767c0-3.655-1.613-6.313-4.794-6.313
			c-2.611,0-4.51,2.089-5.175,4.178c-0.237,0.617-0.332,1.329-0.332,2.041v13.861h-4.082V1726.577z"/>
		<path style="fill:#005187;" d="M1565.506,1726.577c0-2.374-0.048-4.32-0.19-6.219h3.655l0.19,3.703h0.142
			c1.282-2.184,3.418-4.226,7.216-4.226c3.133,0,5.507,1.899,6.504,4.604h0.095c0.712-1.281,1.614-2.278,2.563-2.99
			c1.376-1.044,2.896-1.614,5.079-1.614c3.038,0,7.548,1.994,7.548,9.969v13.529h-4.083v-13.007c0-4.415-1.613-7.073-4.984-7.073
			c-2.373,0-4.225,1.757-4.937,3.798c-0.189,0.569-0.332,1.329-0.332,2.089v14.193h-4.083v-13.767c0-3.655-1.613-6.313-4.794-6.313
			c-2.611,0-4.51,2.089-5.175,4.178c-0.237,0.617-0.332,1.329-0.332,2.041v13.861h-4.082V1726.577z"/>
		<path style="fill:#005187;" d="M1625.887,1731.656c0,8.497-5.887,12.2-11.44,12.2c-6.219,0-11.014-4.558-11.014-11.82
			c0-7.69,5.032-12.2,11.394-12.2C1621.424,1719.836,1625.887,1724.631,1625.887,1731.656z M1607.658,1731.894
			c0,5.032,2.896,8.829,6.978,8.829c3.987,0,6.979-3.75,6.979-8.924c0-3.893-1.946-8.829-6.884-8.829
			C1609.794,1722.97,1607.658,1727.526,1607.658,1731.894z"/>
		<path style="fill:#005187;" d="M1650.996,1709.63v27.771c0,2.041,0.048,4.367,0.19,5.934h-3.75l-0.19-3.987h-0.095
			c-1.281,2.563-4.082,4.51-7.832,4.51c-5.555,0-9.827-4.7-9.827-11.678c-0.047-7.643,4.7-12.343,10.302-12.343
			c3.513,0,5.886,1.662,6.931,3.513h0.095v-13.719H1650.996z M1646.819,1729.71c0-0.522-0.048-1.234-0.19-1.756
			c-0.617-2.659-2.896-4.843-6.028-4.843c-4.319,0-6.883,3.798-6.883,8.877c0,4.652,2.278,8.497,6.788,8.497
			c2.801,0,5.364-1.851,6.123-4.984c0.143-0.569,0.19-1.139,0.19-1.804V1729.71z"/>
		<path style="fill:#005187;" d="M1678.719,1731.656c0,8.497-5.887,12.2-11.44,12.2c-6.219,0-11.014-4.558-11.014-11.82
			c0-7.69,5.032-12.2,11.394-12.2C1674.256,1719.836,1678.719,1724.631,1678.719,1731.656z M1660.49,1731.894
			c0,5.032,2.896,8.829,6.978,8.829c3.987,0,6.979-3.75,6.979-8.924c0-3.893-1.946-8.829-6.884-8.829
			C1662.626,1722.97,1660.49,1727.526,1660.49,1731.894z"/>
		<path style="fill:#005187;" d="M1710.427,1742.479c-1.092,0.569-3.513,1.329-6.599,1.329c-6.931,0-11.44-4.699-11.44-11.725
			c0-7.073,4.843-12.2,12.343-12.2c2.469,0,4.652,0.617,5.791,1.187l-0.949,3.229c-0.997-0.57-2.563-1.092-4.842-1.092
			c-5.27,0-8.117,3.893-8.117,8.687c0,5.316,3.418,8.592,7.975,8.592c2.373,0,3.94-0.616,5.127-1.139L1710.427,1742.479z"/>
		<path style="fill:#005187;" d="M1735.822,1731.656c0,8.497-5.886,12.2-11.44,12.2c-6.219,0-11.013-4.558-11.013-11.82
			c0-7.69,5.031-12.2,11.393-12.2C1731.36,1719.836,1735.822,1724.631,1735.822,1731.656z M1717.594,1731.894
			c0,5.032,2.896,8.829,6.979,8.829c3.987,0,6.978-3.75,6.978-8.924c0-3.893-1.946-8.829-6.883-8.829
			S1717.594,1727.526,1717.594,1731.894z"/>
		<path style="fill:#005187;" d="M1741.091,1726.577c0-2.374-0.048-4.32-0.19-6.219h3.703l0.237,3.798h0.095
			c1.14-2.184,3.798-4.32,7.596-4.32c3.18,0,8.117,1.899,8.117,9.779v13.719h-4.178v-13.244c0-3.703-1.377-6.788-5.316-6.788
			c-2.753,0-4.89,1.946-5.602,4.272c-0.189,0.521-0.285,1.234-0.285,1.946v13.813h-4.177V1726.577z"/>
		<path style="fill:#005187;" d="M1766.865,1739.062c1.234,0.808,3.418,1.661,5.507,1.661c3.038,0,4.462-1.519,4.462-3.417
			c0-1.994-1.187-3.086-4.271-4.226c-4.13-1.472-6.076-3.75-6.076-6.503c0-3.703,2.99-6.741,7.927-6.741
			c2.326,0,4.367,0.665,5.649,1.425l-1.045,3.038c-0.901-0.57-2.563-1.329-4.699-1.329c-2.469,0-3.845,1.424-3.845,3.133
			c0,1.898,1.376,2.753,4.367,3.893c3.987,1.519,6.028,3.513,6.028,6.931c0,4.035-3.133,6.883-8.592,6.883
			c-2.516,0-4.842-0.617-6.456-1.566L1766.865,1739.062z"/>
		<path style="fill:#005187;" d="M1788.559,1732.605c0.095,5.649,3.703,7.976,7.88,7.976c2.991,0,4.795-0.522,6.361-1.188
			l0.712,2.991c-1.472,0.664-3.987,1.424-7.643,1.424c-7.073,0-11.298-4.652-11.298-11.583s4.082-12.39,10.775-12.39
			c7.501,0,9.494,6.599,9.494,10.823c0,0.854-0.095,1.52-0.143,1.946H1788.559z M1800.806,1729.615
			c0.048-2.658-1.092-6.788-5.791-6.788c-4.225,0-6.076,3.893-6.408,6.788H1800.806z"/>
		<path style="fill:#005187;" d="M1825.679,1739.773h-0.095c-1.234,2.279-3.798,4.083-7.5,4.083c-5.364,0-9.731-4.652-9.731-11.631
			c0-8.592,5.554-12.39,10.396-12.39c3.561,0,5.935,1.757,7.073,3.988h0.095l0.143-3.466h3.94c-0.095,1.946-0.143,3.94-0.143,6.313
			v26.062h-4.178V1739.773z M1825.679,1729.662c0-0.569-0.047-1.233-0.189-1.756c-0.617-2.563-2.849-4.747-5.981-4.747
			c-4.319,0-6.931,3.655-6.931,8.829c0,4.558,2.184,8.545,6.788,8.545c2.706,0,5.032-1.661,5.981-4.557
			c0.189-0.57,0.332-1.377,0.332-1.994V1729.662z"/>
		<path style="fill:#005187;" d="M1855.964,1737.068c0,2.373,0.048,4.462,0.189,6.266h-3.702l-0.237-3.75h-0.095
			c-1.092,1.852-3.513,4.272-7.596,4.272c-3.607,0-7.928-1.994-7.928-10.063v-13.435h4.178v12.722c0,4.367,1.329,7.311,5.127,7.311
			c2.801,0,4.747-1.946,5.507-3.798c0.237-0.616,0.379-1.376,0.379-2.136v-14.099h4.178V1737.068z"/>
		<path style="fill:#005187;" d="M1875.615,1743.334l-0.332-2.896h-0.143c-1.282,1.804-3.75,3.418-7.025,3.418
			c-4.652,0-7.025-3.275-7.025-6.599c0-5.554,4.937-8.592,13.813-8.545v-0.475c0-1.898-0.522-5.316-5.222-5.316
			c-2.137,0-4.367,0.664-5.981,1.709l-0.949-2.753c1.898-1.234,4.652-2.042,7.548-2.042c7.025,0,8.734,4.795,8.734,9.399v8.592
			c0,1.994,0.095,3.94,0.38,5.507H1875.615z M1874.998,1731.608c-4.557-0.095-9.731,0.713-9.731,5.175
			c0,2.706,1.804,3.987,3.94,3.987c2.99,0,4.89-1.898,5.554-3.845c0.143-0.428,0.237-0.902,0.237-1.329V1731.608z"/>
		<path style="fill:#005187;" d="M1890.615,1713.76v6.599h5.981v3.181h-5.981v12.39c0,2.849,0.807,4.462,3.133,4.462
			c1.092,0,1.898-0.143,2.421-0.284l0.19,3.133c-0.808,0.332-2.089,0.569-3.703,0.569c-1.946,0-3.513-0.617-4.51-1.756
			c-1.187-1.234-1.614-3.275-1.614-5.981v-12.532h-3.56v-3.181h3.56v-5.507L1890.615,1713.76z"/>
		<path style="fill:#005187;" d="M1900.156,1740.865c0-1.756,1.187-2.99,2.848-2.99c1.662,0,2.801,1.234,2.801,2.99
			c0,1.709-1.092,2.991-2.848,2.991C1901.296,1743.856,1900.156,1742.574,1900.156,1740.865z"/>
	</g>
	<g>
		<path style="fill:#FFFFFF;" d="M1395.193,1815.987h29.498c2.961,0,5.519,0.304,7.671,0.911c2.152,0.606,3.923,1.49,5.312,2.648
			c1.389,1.159,2.419,2.576,3.091,4.25c0.671,1.674,1.007,3.587,1.007,5.739c0,1.324-0.147,2.524-0.441,3.601
			c-0.294,1.076-0.704,2.042-1.228,2.897s-1.145,1.61-1.862,2.263c-0.718,0.653-1.5,1.238-2.346,1.753
			c1.232,0.479,2.354,1.095,3.367,1.849c1.011,0.754,1.867,1.651,2.566,2.69c0.699,1.039,1.242,2.226,1.628,3.56
			c0.387,1.334,0.58,2.819,0.58,4.456c0,1.914-0.345,3.799-1.035,5.657s-1.752,3.514-3.187,4.967
			c-1.435,1.453-3.256,2.626-5.464,3.518c-2.208,0.892-4.82,1.338-7.837,1.338h-31.319V1815.987z M1424.47,1836.765
			c1.269,0,2.377-0.156,3.325-0.469c0.947-0.313,1.733-0.745,2.359-1.297c0.625-0.552,1.095-1.2,1.408-1.945
			c0.313-0.745,0.469-1.541,0.469-2.387c0-0.994-0.148-1.881-0.441-2.663c-0.294-0.782-0.759-1.444-1.394-1.987
			c-0.635-0.542-1.449-0.956-2.442-1.241c-0.994-0.285-2.199-0.428-3.615-0.428h-19.233v12.417H1424.47z M1424.47,1859.613
			c1.95,0,3.559-0.211,4.829-0.635c1.269-0.423,2.271-0.979,3.007-1.669c0.736-0.689,1.251-1.476,1.545-2.359
			c0.294-0.883,0.441-1.775,0.441-2.677c0-0.883-0.148-1.747-0.441-2.594c-0.294-0.846-0.8-1.604-1.518-2.276
			c-0.717-0.671-1.669-1.214-2.856-1.628c-1.187-0.414-2.672-0.621-4.457-0.621h-20.116v14.459H1424.47z"/>
		<path style="fill:#FFFFFF;" d="M1488.212,1853.515h-23.841l-6.568,14.569h-10.624l24.531-52.098h9.823l24.421,52.098h-11.203
			L1488.212,1853.515z M1476.237,1826.142l-8.03,18.874h16.391L1476.237,1826.142z"/>
		<path style="fill:#FFFFFF;" d="M1562.799,1849.21c-0.589,2.759-1.642,5.362-3.16,7.809c-1.518,2.447-3.421,4.581-5.712,6.402
			c-2.29,1.821-4.938,3.261-7.946,4.318c-3.008,1.057-6.287,1.587-9.838,1.587c-2.226,0-4.466-0.207-6.719-0.621
			c-2.254-0.414-4.425-1.071-6.513-1.974c-2.088-0.9-4.038-2.069-5.85-3.504c-1.813-1.435-3.39-3.169-4.733-5.201
			c-1.343-2.033-2.4-4.388-3.173-7.064c-0.772-2.677-1.159-5.707-1.159-9.092c0-2.521,0.271-4.944,0.814-7.271
			c0.542-2.327,1.352-4.493,2.428-6.498c1.076-2.005,2.41-3.831,4.001-5.477c1.591-1.646,3.431-3.054,5.519-4.222
			c2.088-1.168,4.415-2.07,6.981-2.704c2.566-0.635,5.367-0.952,8.402-0.952c1.656,0,3.408,0.124,5.257,0.372
			c1.849,0.248,3.689,0.667,5.519,1.256c1.831,0.589,3.61,1.361,5.34,2.317c1.729,0.957,3.307,2.135,4.733,3.532
			c1.426,1.398,2.645,3.049,3.656,4.953c1.012,1.904,1.728,4.089,2.152,6.554h-9.823c-0.424-1.545-1.091-2.971-2.001-4.277
			c-0.91-1.306-2.052-2.428-3.422-3.366c-1.37-0.938-2.966-1.669-4.787-2.193c-1.821-0.524-3.846-0.787-6.071-0.787
			c-2.906,0-5.532,0.405-7.878,1.215c-2.345,0.809-4.342,2.023-5.987,3.642c-1.646,1.619-2.911,3.652-3.795,6.099
			c-0.883,2.447-1.324,5.308-1.324,8.582c0,1.527,0.147,3.04,0.441,4.539c0.294,1.499,0.759,2.925,1.394,4.277
			c0.635,1.352,1.444,2.612,2.429,3.78c0.983,1.168,2.161,2.176,3.532,3.021c1.37,0.846,2.947,1.509,4.731,1.986
			c1.784,0.478,3.79,0.718,6.016,0.718c1.95,0,3.785-0.229,5.505-0.69c1.721-0.459,3.288-1.172,4.705-2.138
			c1.416-0.966,2.667-2.185,3.753-3.656c1.085-1.472,1.968-3.229,2.649-5.271H1562.799z"/>
		<path style="fill:#FFFFFF;" d="M1588.213,1844.133l-7.892,7.34v16.611h-9.852v-52.098h9.852v23.952l26.435-23.952h13.218
			l-24.394,21.689l25.414,30.408h-12.196L1588.213,1844.133z"/>
	</g>
</g>
<g>
	<ellipse style="fill:#EBF3FC;" cx="1490.426" cy="1413.217" rx="515.931" ry="19.397"/>
	<g>
		<g>
			<path style="fill:#E0ECFB;" d="M1382.531,772.816v-38.52c0-4.932-3.999-8.931-8.931-8.931h-39.442
				c-2.085-7.157-4.942-13.987-8.476-20.396l27.909-27.909c3.488-3.488,3.488-9.142,0-12.63l-27.237-27.237
				c-3.488-3.488-9.142-3.488-12.63,0l-27.909,27.909c-6.408-3.534-13.238-6.391-20.396-8.476v-39.442
				c0-4.932-3.998-8.931-8.931-8.931h-38.52c-4.932,0-8.931,3.998-8.931,8.931v39.442c-7.157,2.085-13.987,4.942-20.395,8.476
				l-27.909-27.909c-3.488-3.488-9.142-3.488-12.63,0l-27.238,27.238c-3.488,3.488-3.488,9.142,0,12.63l27.909,27.909
				c-3.534,6.408-6.391,13.238-8.476,20.396h-39.442c-4.932,0-8.931,3.998-8.931,8.931v38.52c0,4.932,3.999,8.931,8.931,8.931
				h39.442c2.085,7.157,4.942,13.987,8.476,20.395l-27.909,27.909c-3.488,3.488-3.488,9.142,0,12.63l27.237,27.238
				c3.488,3.488,9.142,3.488,12.63,0l27.909-27.909c6.408,3.534,13.238,6.391,20.396,8.476v39.442c0,4.932,3.998,8.931,8.931,8.931
				h38.52c4.932,0,8.931-3.998,8.931-8.931v-39.442c7.157-2.085,13.987-4.942,20.395-8.476l27.909,27.909
				c3.488,3.488,9.142,3.488,12.63,0l27.237-27.237c3.488-3.488,3.488-9.142,0-12.63l-27.909-27.909
				c3.534-6.408,6.391-13.239,8.476-20.396h39.442C1378.533,781.747,1382.531,777.749,1382.531,772.816z M1241.293,797.925
				c-27.753,2.473-50.906-20.68-48.433-48.433c1.896-21.275,19.028-38.407,40.302-40.304c27.755-2.474,50.91,20.681,48.435,48.435
				C1279.701,778.898,1262.568,796.029,1241.293,797.925z"/>
			<g>
				<path style="fill:#E0ECFB;" d="M1985.263,1013.234v-64.658c0-8.279-6.712-14.991-14.991-14.991h-66.206
					c-3.5-12.013-8.295-23.479-14.227-34.236l46.848-46.847c5.854-5.854,5.854-15.346,0-21.201l-45.72-45.72
					c-5.854-5.854-15.346-5.854-21.201,0l-46.848,46.848c-10.757-5.932-22.222-10.728-34.235-14.227v-66.206
					c0-8.279-6.712-14.991-14.991-14.991l-64.658,0c-8.279,0-14.991,6.712-14.991,14.991v66.206
					c-12.014,3.5-23.479,8.295-34.235,14.227l-46.848-46.848c-5.854-5.854-15.346-5.854-21.201,0l-45.72,45.72
					c-5.854,5.854-5.854,15.346,0,21.201l46.848,46.848c-5.932,10.757-10.728,22.222-14.228,34.236h-66.206
					c-8.279,0-14.991,6.712-14.991,14.991v64.658c0,8.279,6.712,14.991,14.991,14.991h66.206c3.5,12.014,8.296,23.479,14.227,34.235
					l-46.848,46.848c-5.854,5.854-5.854,15.346,0,21.201l45.72,45.72c5.854,5.854,15.346,5.854,21.201,0l46.848-46.848
					c10.757,5.932,22.222,10.728,34.235,14.228v66.206c0,8.279,6.712,14.991,14.991,14.991h64.658
					c8.279,0,14.991-6.712,14.991-14.991v-66.206c12.014-3.5,23.479-8.295,34.235-14.227l46.848,46.848
					c5.854,5.854,15.346,5.854,21.201,0l45.72-45.72c5.854-5.854,5.854-15.346,0-21.201l-46.848-46.848
					c5.932-10.757,10.728-22.222,14.228-34.235h66.206C1978.551,1028.225,1985.263,1021.513,1985.263,1013.234z M1748.184,1055.381
					c-46.586,4.151-85.45-34.714-81.298-81.299c3.182-35.711,31.94-64.469,67.651-67.653c46.589-4.154,85.456,34.714,81.302,81.302
					C1812.654,1023.443,1783.895,1052.199,1748.184,1055.381z"/>
				<path style="fill:#E0ECFB;" d="M1820.251,625.857v-25.165c0-3.222-2.612-5.835-5.834-5.835h-25.767
					c-1.362-4.676-3.229-9.138-5.537-13.324l18.233-18.233c2.278-2.279,2.278-5.973,0-8.251l-17.794-17.794
					c-2.279-2.278-5.973-2.278-8.251,0l-18.233,18.233c-4.187-2.309-8.649-4.175-13.324-5.537v-25.767
					c0-3.222-2.612-5.835-5.834-5.835h-25.165c-3.222,0-5.835,2.612-5.835,5.835v25.767c-4.676,1.362-9.138,3.229-13.324,5.537
					l-18.233-18.233c-2.278-2.279-5.973-2.279-8.251,0l-17.794,17.794c-2.278,2.279-2.278,5.973,0,8.251l18.233,18.233
					c-2.309,4.187-4.175,8.649-5.537,13.325h-25.767c-3.222,0-5.835,2.612-5.835,5.834v25.165c0,3.222,2.612,5.835,5.835,5.835H1662
					c1.362,4.676,3.229,9.138,5.537,13.324l-18.233,18.233c-2.279,2.279-2.279,5.973,0,8.251l17.794,17.794
					c2.278,2.279,5.973,2.279,8.251,0l18.233-18.233c4.186,2.309,8.649,4.175,13.324,5.537v25.768c0,3.222,2.612,5.834,5.834,5.834
					h25.165c3.222,0,5.835-2.612,5.835-5.834v-25.768c4.676-1.362,9.138-3.229,13.324-5.537l18.233,18.233
					c2.279,2.279,5.973,2.279,8.251,0l17.794-17.794c2.279-2.279,2.279-5.973,0-8.251l-18.233-18.233
					c2.309-4.186,4.175-8.649,5.537-13.324h25.767C1817.639,631.691,1820.251,629.079,1820.251,625.857z M1727.98,642.26
					c-18.131,1.616-33.257-13.51-31.641-31.642c1.239-13.899,12.431-25.091,26.33-26.33c18.132-1.617,33.26,13.511,31.643,31.643
					C1753.071,629.83,1741.879,641.022,1727.98,642.26z"/>
			</g>
		</g>
		<g>
			<g>
				<g>
					<path style="fill:#628FBD;" d="M1670.699,851.439h-26.126v-30.457h26.126c37.095,0,71.401-21.626,87.4-55.094l78.609-164.446
						c12.427-25.997,12.671-55.932,0.669-82.128c-15.731-34.337-50.3-56.524-88.07-56.524h-75.672v-30.457h75.672
						c49.644,0,95.081,29.162,115.758,74.294c15.775,34.432,15.455,73.778-0.879,107.949l-78.609,164.446
						c-10.379,21.71-26.624,39.968-46.98,52.8C1718.241,844.656,1694.762,851.439,1670.699,851.439z"/>
				</g>
				<path style="fill:#628FBD;" d="M1398.285,952.367c-17.535,0-34.268-6.572-47.116-18.507
					c-12.848-11.934-20.635-28.137-21.926-45.625l-44.064-596.651h408.958l-44.063,596.65c-1.291,17.488-9.078,33.691-21.926,45.625
					c-12.848,11.935-29.581,18.507-47.116,18.507H1398.285z"/>
				<path style="fill:#CCE0F8;" d="M1605.36,300.543h-231.404h-79.133l43.353,587.033c2.325,31.48,28.543,55.833,60.109,55.833
					h182.746c31.565,0,57.784-24.354,60.109-55.833l43.353-587.033H1605.36z"/>
				<g>
					<path style="fill:#FF7C78;" d="M1553.158,527.56l-128.51,39.773l-13.755-44.442l90.775-197.259l46.781-14.478l46.544,150.387
						l44.029-13.627l14.99,48.432l-44.029,13.627l17.459,56.412l-56.825,17.587L1553.158,527.56z M1517.771,413.222l-37.665,83.876
						l58.063-17.97L1517.771,413.222z"/>
				</g>
				<g>
					<path style="fill:#FF7C78;" d="M1481.891,853.392l-99.969,90.016l-31.13-34.572l-0.353-217.143l36.391-32.768l105.34,116.987
						l34.25-30.841l33.925,37.676l-34.25,30.841l39.515,43.883l-44.205,39.804L1481.891,853.392z M1401.801,764.448l0.997,91.94
						l45.168-40.671L1401.801,764.448z"/>
				</g>
				<g>
					<path style="fill:#FF7C78;" d="M1406.263,649.826c0-9.663,0.682-18.993,2.047-27.994c1.364-8.999,3.522-17.427,6.473-25.284
						c2.949-7.856,6.805-15.01,11.563-21.466c4.758-6.454,10.529-12.005,17.316-16.653c6.786-4.647,14.642-8.244,23.569-10.788
						c8.924-2.545,19.105-3.817,30.539-3.817c11.508,0,21.779,1.272,30.816,3.817c9.035,2.545,16.985,6.141,23.845,10.788
						c6.86,4.647,12.687,10.199,17.482,16.653c4.794,6.456,8.704,13.61,11.729,21.466c3.024,7.856,5.217,16.285,6.583,25.284
						c1.364,9.001,2.047,18.332,2.047,27.994c0,9.737-0.683,19.125-2.047,28.16c-1.366,9.037-3.56,17.483-6.583,25.339
						c-3.026,7.856-6.935,15.012-11.729,21.466c-4.796,6.455-10.622,11.988-17.482,16.597c-6.86,4.611-14.81,8.188-23.845,10.733
						c-9.037,2.545-19.308,3.817-30.816,3.817c-11.435,0-21.615-1.272-30.539-3.817c-8.927-2.545-16.783-6.122-23.569-10.733
						c-6.788-4.609-12.558-10.142-17.316-16.597c-4.758-6.454-8.614-13.61-11.563-21.466c-2.951-7.856-5.109-16.302-6.473-25.339
						C1406.945,668.951,1406.263,659.563,1406.263,649.826z M1542.141,649.826c0-3.319-0.149-7.284-0.443-11.895
						c-0.295-4.609-0.96-9.423-1.992-14.44c-1.034-5.016-2.509-9.976-4.426-14.882c-1.919-4.905-4.537-9.312-7.856-13.223
						c-3.32-3.909-7.397-7.063-12.227-9.461c-4.832-2.396-10.641-3.596-17.427-3.596c-6.714,0-12.468,1.2-17.261,3.596
						c-4.797,2.398-8.816,5.551-12.061,9.461c-3.247,3.911-5.829,8.318-7.746,13.223c-1.919,4.907-3.394,9.867-4.426,14.882
						c-1.034,5.017-1.697,9.83-1.992,14.44c-0.295,4.611-0.442,8.575-0.442,11.895c0,3.319,0.147,7.322,0.442,12.005
						c0.295,4.686,0.958,9.535,1.992,14.551c1.032,5.017,2.507,10.014,4.426,14.993c1.917,4.979,4.499,9.424,7.746,13.333
						c3.245,3.911,7.264,7.081,12.061,9.516c4.793,2.434,10.547,3.651,17.261,3.651c6.786,0,12.595-1.217,17.427-3.651
						c4.831-2.434,8.907-5.605,12.227-9.516c3.319-3.909,5.937-8.354,7.856-13.333c1.917-4.979,3.392-9.976,4.426-14.993
						c1.032-5.016,1.696-9.865,1.992-14.551C1541.992,657.148,1542.141,653.146,1542.141,649.826z"/>
				</g>
				<polygon style="fill:#628FBD;" points="1294.823,300.543 1241.682,300.543 1303.359,416.135 				"/>
				<g>
					<path style="fill:#DC545A;" d="M1437.099,563.48c0,0,62.221-19.712,63.509-19.656c1.288,0.057,12.471-0.154,27.979,3.817
						c0,0-96.494,27.424-118.759,65.923C1409.828,613.565,1416.556,579.319,1437.099,563.48z"/>
					<path style="fill:#DC545A;" d="M1409.286,683.739l62.337,69.718c0,0-26.99-2.647-43.928-23.517
						C1411.28,709.714,1409.286,683.739,1409.286,683.739z"/>
				</g>
				<g>
					<path style="fill:#01305A;" d="M1694.137,291.585h-408.958l0,0c0-17.75,14.39-32.14,32.14-32.14h344.678
						C1679.747,259.445,1694.137,273.834,1694.137,291.585L1694.137,291.585z"/>
					<path style="fill:#064D81;" d="M1543.541,259.445h-112.255l4.489,0c0-24.109,19.544-43.653,43.653-43.653h24.948
						c24.109,0,43.654,19.544,43.654,43.653L1543.541,259.445z"/>
				</g>
				<g>
					<rect x="1447.966" y="300.543" style="opacity:0.4;fill:#FFFFFF;" width="23.657" height="642.866"/>
					
						<rect x="1386.83" y="300.543" transform="matrix(-1 -1.224647e-16 1.224647e-16 -1 2811.7141 1243.951)" style="opacity:0.4;fill:#FFFFFF;" width="38.053" height="642.866"/>
				</g>
			</g>
			<g>
				<rect x="1383.784" y="943.409" style="fill:#01305A;" width="209.695" height="37.496"/>
				<g>
					<defs>
						<path id="XMLID_1_" d="M1594.808,980.905h-83.344h-44.337h-83.344c-156.732,151.209-146.414,389.697-146.414,389.697h229.758
							h44.337h229.758C1741.223,1370.602,1751.54,1132.114,1594.808,980.905z"/>
					</defs>
					<use xlink:href="#XMLID_1_"  style="overflow:visible;fill:#005187;"/>
					<clipPath id="XMLID_00000011715833649963718850000005914040235487707322_">
						<use xlink:href="#XMLID_1_"  style="overflow:visible;"/>
					</clipPath>
					<path style="opacity:0.41;clip-path:url(#XMLID_00000011715833649963718850000005914040235487707322_);fill:#01305A;" d="
						M1664.551,1033.191c0,0-168.521,156.878-436.317,178.939c0,0,65.716-231.225,177.174-249.973h199.047L1664.551,1033.191z"/>
				</g>
				<g>
					<path style="fill:#01305A;" d="M1309.283,1413.217L1309.283,1413.217c-11.768,0-21.307-9.54-21.307-21.307v-21.307h42.615
						v21.307C1330.59,1403.677,1321.05,1413.217,1309.283,1413.217z"/>
					<path style="fill:#01305A;" d="M1671.961,1413.217L1671.961,1413.217c-11.768,0-21.307-9.54-21.307-21.307v-21.307h42.615
						v21.307C1693.269,1403.677,1683.729,1413.217,1671.961,1413.217z"/>
				</g>
				<g>
					<path style="fill:#01305A;" d="M1499.502,1074.268v35.194h-18.342v-35.194c-40.428,4.556-71.85,38.856-71.85,80.501
						c0,44.747,36.275,81.021,81.021,81.021c44.747,0,81.021-36.274,81.021-81.021
						C1571.353,1113.125,1539.931,1078.824,1499.502,1074.268z"/>
					<rect x="1481.349" y="1063.505" style="fill:#FFFFFF;" width="18.153" height="45.958"/>
				</g>
				<g>
					
						<ellipse transform="matrix(0.1602 -0.9871 0.9871 0.1602 -97.1983 2504.4707)" style="fill:#003159;" cx="1423.227" cy="1309.357" rx="17.82" ry="17.82"/>
					
						<ellipse transform="matrix(0.1602 -0.9871 0.9871 0.1602 -41.7129 2569.686)" style="fill:#003159;" cx="1489.296" cy="1309.357" rx="17.82" ry="17.82"/>
					
						<ellipse transform="matrix(0.1602 -0.9871 0.9871 0.1602 13.7725 2634.9011)" style="fill:#003159;" cx="1555.364" cy="1309.357" rx="17.82" ry="17.82"/>
				</g>
				<circle style="fill:#628FBD;" cx="1490.426" cy="1152.748" r="62.281"/>
			</g>
		</g>
	</g>
	<g>
		<path style="fill:#FFFFFF;" d="M1339.43,469.727c0,0,11.448,115.746,250.844,160.573
			C1590.274,630.3,1351.658,628.949,1339.43,469.727z"/>
		<path style="fill:#FFFFFF;" d="M1384.256,592.162c0,0,21.932,77.394,238.092,76.277
			C1622.348,668.439,1411.315,699.092,1384.256,592.162z"/>
	</g>
</g>
</svg>
